<?xml version="1.0" encoding="UTF-8" standalone="no"?>
<svg
   xmlns:dc="http://purl.org/dc/elements/1.1/"
   xmlns:cc="http://creativecommons.org/ns#"
   xmlns:rdf="http://www.w3.org/1999/02/22-rdf-syntax-ns#"
   xmlns:svg="http://www.w3.org/2000/svg"
   xmlns="http://www.w3.org/2000/svg"
   xmlns:sodipodi="http://sodipodi.sourceforge.net/DTD/sodipodi-0.dtd"
   xmlns:inkscape="http://www.inkscape.org/namespaces/inkscape"
   inkscape:version="1.0 (4035a4fb49, 2020-05-01)"
   sodipodi:docname="Union 6.svg"
   id="svg8"
   height="14.3"
   width="22.725"
   viewBox="0 0 22.725 14.3"
   version="1.2">
  <metadata
     id="metadata14">
    <rdf:RDF>
      <cc:Work
         rdf:about="">
        <dc:format>image/svg+xml</dc:format>
        <dc:type
           rdf:resource="http://purl.org/dc/dcmitype/StillImage" />
      </cc:Work>
    </rdf:RDF>
  </metadata>
  <defs
     id="defs12" />
  <sodipodi:namedview
     inkscape:current-layer="svg8"
     inkscape:window-maximized="1"
     inkscape:window-y="-8"
     inkscape:window-x="-8"
     inkscape:cy="6.9"
     inkscape:cx="11.525"
     inkscape:zoom="49"
     showgrid="false"
     id="namedview10"
     inkscape:window-height="1018"
     inkscape:window-width="1920"
     inkscape:pageshadow="2"
     inkscape:pageopacity="0"
     guidetolerance="10"
     gridtolerance="10"
     objecttolerance="10"
     borderopacity="1"
     bordercolor="#666666"
     pagecolor="#ffffff" />
  <title
     id="title2">Item 3</title>
  <style
     id="style4">
		.s0 { fill: #888888 } 
	</style>
  <g
     transform="translate(0.025,-0.6)"
     id="Item 3">
    <path
       d="M 6.8,14.9 Q 4.6,14.8 2.9,13.5 0.7,11.9 0.2,9.3 -0.1,8.3 0,7.3 0.2,5 1.6,3.2 3.2,1.4 5.5,0.8 6.1,0.6 6.7,0.6 q 0.3,0 0.7,0 1.8,0 3.4,0.9 c 0.7,0.4 1.1,0.8 1.2,0.9 Q 11,3.5 9.9,4.5 C 9.4,4.1 8.8,3.6 7.8,3.5 Q 7.5,3.4 7.2,3.4 c -2,0 -3.7,1.5 -4.1,3.4 Q 2.9,7.4 3,8.1 c 0.1,1.8 1.3,3.2 2.9,3.7 Q 6.5,12 7.2,12 7.3,12 7.5,12 C 8.2,12 8.9,11.8 9.6,11.3 10.7,10.6 11,9.5 11,9.2 H 7.2 c 0,-0.1 0,-1.9 0,-2.8 V 6.3 h 6.7 c 0.4,2.1 0.1,4.3 -1.2,6.1 -0.9,1.1 -2.2,1.9 -3.6,2.3 q -1,0.2 -1.9,0.2 -0.2,0 -0.4,0 z m 13.3,-4 H 18.3 18.2 V 10.8 8.4 H 15.8 15.7 V 8.3 6.5 6.4 h 0.1 2.4 V 4 3.9 h 0.1 1.8 0.1 V 4 6.4 h 2.4 0.1 v 0.1 1.8 0.1 h -0.1 -2.4 v 2.4 0.1 z"
       class="s0"
       id="Union 6" />
  </g>
</svg>
