<?xml version="1.0" encoding="UTF-8" standalone="no"?>
<svg
   xmlns:dc="http://purl.org/dc/elements/1.1/"
   xmlns:cc="http://creativecommons.org/ns#"
   xmlns:rdf="http://www.w3.org/1999/02/22-rdf-syntax-ns#"
   xmlns:svg="http://www.w3.org/2000/svg"
   xmlns="http://www.w3.org/2000/svg"
   xmlns:sodipodi="http://sodipodi.sourceforge.net/DTD/sodipodi-0.dtd"
   xmlns:inkscape="http://www.inkscape.org/namespaces/inkscape"
   inkscape:version="1.0 (4035a4fb49, 2020-05-01)"
   sodipodi:docname="Union 5.svg"
   id="svg8"
   height="17.200001"
   width="17.203287"
   viewBox="0 0 17.203287 17.200001"
   version="1.2">
  <metadata
     id="metadata14">
    <rdf:RDF>
      <cc:Work
         rdf:about="">
        <dc:format>image/svg+xml</dc:format>
        <dc:type
           rdf:resource="http://purl.org/dc/dcmitype/StillImage" />
      </cc:Work>
    </rdf:RDF>
  </metadata>
  <defs
     id="defs12" />
  <sodipodi:namedview
     inkscape:current-layer="svg8"
     inkscape:window-maximized="1"
     inkscape:window-y="-8"
     inkscape:window-x="-8"
     inkscape:cy="8.4"
     inkscape:cx="9.0138439"
     inkscape:zoom="40.833333"
     showgrid="false"
     id="namedview10"
     inkscape:window-height="1018"
     inkscape:window-width="1920"
     inkscape:pageshadow="2"
     inkscape:pageopacity="0"
     guidetolerance="10"
     gridtolerance="10"
     objecttolerance="10"
     borderopacity="1"
     bordercolor="#666666"
     pagecolor="#ffffff" />
  <title
     id="title2">Item 3</title>
  <style
     id="style4">
		.s0 { fill: #888888 } 
	</style>
  <g
     transform="translate(0.01384388,-0.6)"
     id="Item 3">
    <path
       d="M 3.6,17.5 C 1.6,17 0.5,15.7 0.2,13.7 -0.1,12.3 -0.1,5.6 0.3,4.1 0.9,2.2 2.1,1.1 4.1,0.8 4.9,0.6 6.7,0.6 8.4,0.6 c 1.6,0 3.2,0 4.2,0.1 1.2,0 2.2,0.4 3.1,1.2 0.9,0.8 1.3,1.8 1.4,3 0.1,1.3 0.2,7.7 -0.2,9.2 q -0.8,3 -3.8,3.5 c -0.7,0.1 -2.7,0.2 -4.7,0.2 -2.1,0 -4.1,-0.1 -4.8,-0.3 z M 4.5,2.2 C 3,2.4 2,3.3 1.8,4.8 1.5,6.4 1.5,12.3 1.7,13.5 c 0.2,1.3 0.9,2.1 2.1,2.4 0.7,0.2 2.7,0.3 4.6,0.3 1.9,0 3.6,-0.1 4.3,-0.1 1.5,-0.2 2.5,-1.1 2.7,-2.6 C 15.7,12 15.7,6.4 15.5,5 15.4,3.5 14.5,2.5 13,2.3 12.2,2.2 10.4,2.1 8.7,2.1 7,2.1 5.3,2.2 4.5,2.2 Z m -0.3,7 c 0,-2.5 2,-4.5 4.4,-4.4 2.5,0 4.4,1.9 4.4,4.4 0,2.4 -2,4.4 -4.4,4.4 -2.5,0 -4.4,-2 -4.4,-4.4 z M 5.7,9.1 C 5.7,10.7 7,12 8.5,12 h 0.1 c 1.5,0 2.8,-1.2 2.8,-2.8 C 11.5,7.6 10.2,6.3 8.6,6.3 7.1,6.3 5.8,7.6 5.7,9.1 Z m 6.5,-4.5 c 0,-0.6 0.5,-1 1,-1 0.6,0 1.1,0.4 1.1,1 -0.1,0.6 -0.5,1 -1.1,1 -0.6,0 -1,-0.5 -1,-1 z"
       class="s0"
       fill-rule="evenodd"
       id="Union 5" />
  </g>
</svg>
