<svg version="1.2" xmlns="http://www.w3.org/2000/svg" viewBox="0 0 48 64" width="48" height="64">
	<title>Widgets</title>
	<style>
		.s0 { fill: #243f4d } 
	</style>
	<g id="Widgets">
		<path id="Shape 1" fill-rule="evenodd" class="s0" d="m32.6 9.4c-0.3 0.5-0.9 0.7-1.4 0.4-6.1-3.2-13.6-1.9-18.5 3-5.7 5.8-6.3 15-1.4 21.4 0.4 0.4 0.3 1.1-0.1 1.4q-0.3 0.2-0.6 0.2c-0.3 0-0.6-0.1-0.8-0.4-5.6-7.2-5-17.5 1.5-24 5.5-5.6 13.9-6.9 20.8-3.4 0.5 0.3 0.7 0.9 0.5 1.4zm4.2 27.7c-3.5 3.6-8.2 5.4-12.8 5.4-3.9 0-7.8-1.3-11-3.8-0.5-0.4-0.6-1-0.2-1.5 0.3-0.4 0.9-0.5 1.4-0.1 6.3 5 15.4 4.4 21.2-1.4 4.9-4.9 6.1-12.5 2.9-18.7-0.2-0.5 0-1.1 0.5-1.4 0.5-0.2 1.1 0 1.3 0.5 3.5 7 2.2 15.5-3.3 21zm0.7-23.5q-0.3 0.3-0.7 0.3c-0.3 0-0.6-0.1-0.8-0.3q-0.3-0.4-0.6-0.8-0.4-0.3-0.8-0.7c-0.4-0.3-0.4-1-0.1-1.4 0.4-0.4 1-0.5 1.4-0.1q0.5 0.4 0.9 0.8 0.4 0.4 0.7 0.8c0.4 0.4 0.4 1.1 0 1.4zm8.8 14.7c-0.2 0.2-0.3 0.6-0.2 0.9l0.4 2.5c0.2 1.3-0.4 2.6-1.4 3.3l-2 1.5c-0.3 0.2-0.5 0.5-0.6 0.8l-0.6 2.5c-0.3 1.3-1.2 2.2-2.5 2.5l-0.9 0.3 6.9 15.6c0.1 0.3 0.1 0.7-0.1 1-0.2 0.3-0.6 0.4-0.9 0.4l-5.6-0.7-3.2 4.7c-0.2 0.2-0.5 0.4-0.8 0.4q-0.1 0-0.1 0c-0.4 0-0.7-0.3-0.9-0.6l-7-15.9-1 0.5c-0.5 0.4-1.1 0.5-1.7 0.5-0.7 0-1.3-0.1-1.8-0.5l-0.9-0.5-7.1 15.9c-0.1 0.3-0.4 0.6-0.8 0.6q0 0-0.1 0c-0.3 0-0.6-0.2-0.8-0.4l-3.2-4.7-5.6 0.7c-0.3 0-0.7-0.1-0.9-0.4-0.2-0.3-0.3-0.7-0.1-1l6.9-15.6-1-0.3c-1.3-0.3-2.2-1.2-2.5-2.5l-0.6-2.5c-0.1-0.3-0.3-0.6-0.6-0.8l-2-1.5c-1-0.7-1.5-2-1.3-3.3l0.3-2.5q0.1-0.5-0.1-0.9l-1.4-2.2c-0.6-1.1-0.6-2.5 0-3.6l1.4-2.2c0.1-0.3 0.2-0.6 0.1-0.9l-0.3-2.5c-0.2-1.3 0.3-2.6 1.3-3.4l2-1.4c0.3-0.2 0.5-0.5 0.6-0.9l0.6-2.4c0.3-1.3 1.2-2.3 2.5-2.6l2.4-0.6q0.5-0.1 0.8-0.5l1.5-2.1c0.8-1 2-1.5 3.3-1.3l2.5 0.4q0.5 0 0.9-0.2l2.2-1.4c1.1-0.6 2.4-0.6 3.5 0l2.2 1.4c0.3 0.1 0.6 0.2 0.9 0.2l2.5-0.4c1.3-0.2 2.5 0.3 3.3 1.3l1.5 2.1c0.2 0.3 0.5 0.5 0.8 0.5l2.4 0.6c1.3 0.3 2.2 1.3 2.5 2.6l0.6 2.4q0.2 0.5 0.6 0.9l2 1.4c1 0.8 1.6 2.1 1.4 3.4l-0.4 2.5c-0.1 0.3 0 0.6 0.2 0.9l1.3 2.2c0.6 1.1 0.6 2.5 0 3.6zm-26.7 18.2q-0.2 0-0.4 0l-2.5 0.4q-0.5 0.1-1 0l-3.3 7.5c-0.2 0.4-0.5 0.6-0.9 0.6q-0.2 0-0.4-0.1c-0.5-0.2-0.7-0.8-0.5-1.3l3.3-7.5q-0.3-0.2-0.5-0.5l-1.4-2.1q-0.2-0.2-0.4-0.3l-6.3 14.2 4.5-0.5c0.3-0.1 0.7 0.1 0.9 0.4l2.5 3.7zm16.9-3.4q-0.2 0.2-0.3 0.3l-1.5 2.1q-0.2 0.3-0.4 0.5l3.3 7.5c0.2 0.5 0 1.1-0.5 1.3q-0.2 0.1-0.4 0.1c-0.4 0-0.8-0.2-0.9-0.6l-3.3-7.4q-0.5 0.1-1.1 0l-2.5-0.4q-0.2-0.1-0.4 0l6.4 14.4 2.6-3.7c0.2-0.3 0.6-0.4 0.9-0.4l4.4 0.5zm9.4-19.6l-1.3-2.1c-0.4-0.7-0.6-1.6-0.5-2.4l0.4-2.5c0.1-0.5-0.1-1-0.5-1.3l-2.1-1.5c-0.6-0.5-1.1-1.2-1.3-2l-0.6-2.5c-0.1-0.5-0.5-0.9-1-1l-2.5-0.6c-0.7-0.2-1.4-0.7-1.9-1.3l-1.5-2.1c-0.3-0.4-0.8-0.6-1.3-0.6l-2.5 0.4c-0.8 0.2-1.6 0-2.3-0.4l-2.2-1.3c-0.4-0.3-1-0.3-1.4 0l-2.2 1.3c-0.7 0.4-1.5 0.6-2.3 0.4l-2.5-0.4c-0.5 0-1 0.2-1.3 0.6l-1.5 2.1c-0.5 0.6-1.2 1.1-2 1.3l-2.4 0.6c-0.5 0.1-0.9 0.5-1.1 1l-0.6 2.5c-0.1 0.8-0.6 1.5-1.3 2l-2 1.5c-0.4 0.3-0.6 0.8-0.6 1.3l0.4 2.5c0.2 0.8 0 1.7-0.4 2.4l-1.3 2.1c-0.3 0.5-0.3 1.1 0 1.5l1.3 2.2c0.4 0.7 0.6 1.5 0.4 2.3l-0.4 2.5c0 0.6 0.2 1.1 0.6 1.4l2 1.5c0.7 0.5 1.2 1.2 1.3 2l0.6 2.4c0.2 0.5 0.6 0.9 1.1 1.1l2.4 0.6c0.8 0.2 1.5 0.6 2 1.3l1.5 2c0.3 0.5 0.8 0.7 1.3 0.6l2.5-0.4q0.3 0 0.5 0c0.6 0 1.3 0.1 1.8 0.5l2.2 1.3c0.4 0.3 1 0.3 1.4 0l2.2-1.3c0.7-0.4 1.5-0.6 2.3-0.5l2.5 0.4c0.5 0.1 1-0.1 1.3-0.6l1.5-2c0.5-0.7 1.2-1.1 1.9-1.3l2.5-0.6c0.5-0.2 0.9-0.6 1-1.1l0.6-2.4c0.2-0.8 0.7-1.5 1.3-2l2.1-1.5c0.4-0.3 0.6-0.8 0.5-1.4l-0.4-2.5c-0.1-0.8 0.1-1.6 0.5-2.3l1.3-2.2c0.3-0.4 0.3-1 0-1.5zm-10.6-0.5l-4.5 4.2 1.2 6c0.2 0.7-0.1 1.4-0.7 1.8-0.6 0.4-1.3 0.5-1.9 0.1l-5.3-3-5.3 3q-0.4 0.3-0.9 0.3-0.5 0-1-0.4c-0.6-0.4-0.9-1.1-0.7-1.8l1.1-6-4.4-4.2c-0.5-0.4-0.7-1.2-0.5-1.9 0.2-0.6 0.8-1.1 1.5-1.2l6-0.7 2.5-5.6c0.3-0.6 1-1 1.7-1 0.7 0 1.3 0.4 1.6 1l2.6 5.6 6 0.7c0.7 0.1 1.2 0.6 1.5 1.2 0.2 0.7 0 1.5-0.5 1.9zm-1.7-1.1l-6.1-0.8c-0.4 0-0.7-0.2-0.8-0.6l-2.6-5.6-2.6 5.6c-0.2 0.4-0.5 0.6-0.8 0.6l-6.1 0.8 4.5 4.2c0.3 0.2 0.4 0.6 0.3 0.9l-1.2 6.2 5.4-3.1q0.2-0.1 0.5-0.1 0.2 0 0.5 0.1l5.4 3.1-1.2-6.2c-0.1-0.3 0-0.7 0.3-0.9z"/>
	</g>
</svg>