<svg version="1.2" xmlns="http://www.w3.org/2000/svg" viewBox="0 0 64 57" width="64" height="57">
	<title>Widgets</title>
	<style>
		.s0 { fill: #243f4d } 
	</style>
	<g id="Widgets">
		<path id="Shape 1" fill-rule="evenodd" class="s0" d="m64 3.4v41.1c0 1.9-1.5 3.4-3.4 3.4h-21.7l0.9 7h3.7c0.5 0 1 0.4 1 1 0 0.6-0.5 1.1-1 1.1h-23c-0.5 0-1-0.5-1-1.1 0-0.6 0.5-1 1-1h3.7l0.9-7h-21.7c-1.9 0-3.4-1.5-3.4-3.4v-41.1c0-1.9 1.5-3.4 3.4-3.4h57.2c1.9 0 3.4 1.5 3.4 3.4zm-26.3 51.5l-0.9-7h-9.6l-0.9 7zm24.2-10.4v-41.1c0-0.7-0.5-1.3-1.2-1.3h-57.2c-0.7 0-1.3 0.6-1.3 1.3v41.1c0 0.7 0.6 1.2 1.3 1.2h57.2c0.7 0 1.2-0.5 1.2-1.2zm-10.4-38.9c0 0.6-0.5 1.1-1.1 1.1h-43.6v33.3h2.4c0.6 0 1.1 0.5 1.1 1.1 0 0.6-0.5 1-1.1 1h-3.5c-0.6 0-1-0.4-1-1v-35.5c0-0.5 0.5-1 1-1h44.7c0.6 0 1.1 0.5 1.1 1zm8 0v35.5c0 0.6-0.5 1-1.1 1h-44.6c-0.6 0-1.1-0.4-1.1-1 0-0.6 0.5-1.1 1.1-1.1h43.6v-33.3h-2.4c-0.6 0-1.1-0.5-1.1-1.1 0-0.5 0.5-1 1.1-1h3.4c0.6 0 1.1 0.5 1.1 1zm-4.6 8c0 1.9-1.5 3.4-3.3 3.4q-0.8 0-1.4-0.3l-8.7 9.1q0.4 0.7 0.4 1.6c0 1.8-1.5 3.3-3.3 3.3-1.9 0-3.4-1.5-3.4-3.3q0-0.3 0.1-0.6l-7.4-3.9c-0.6 0.6-1.4 1-2.3 1q-0.8-0.1-1.5-0.4l-8.4 8.1q0.3 0.7 0.3 1.5c0 1.8-1.5 3.3-3.4 3.3-1.8 0-3.3-1.5-3.3-3.3 0-1.9 1.5-3.4 3.3-3.4q0.9 0 1.6 0.4l8.4-8.2q-0.4-0.6-0.4-1.4c0-1.9 1.5-3.4 3.4-3.4 1.9 0 3.4 1.5 3.4 3.4q0 0.3-0.1 0.5l7.4 3.9c0.6-0.5 1.4-0.9 2.3-0.9q0.7 0 1.4 0.3l8.6-9.1q-0.4-0.7-0.4-1.6c0-1.8 1.5-3.3 3.4-3.3 1.8 0 3.3 1.5 3.3 3.3zm-41.1 19.5c0-0.7-0.5-1.2-1.2-1.2-0.7 0-1.2 0.5-1.2 1.2 0 0.6 0.5 1.2 1.2 1.2 0.7 0 1.2-0.6 1.2-1.2zm13-12.6c0-0.7-0.5-1.2-1.2-1.2-0.7 0-1.2 0.5-1.2 1.2 0 0.7 0.5 1.2 1.2 1.2 0.7 0 1.2-0.5 1.2-1.2zm13 6.9c0-0.7-0.6-1.3-1.2-1.3-0.7 0-1.2 0.6-1.2 1.3 0 0.6 0.5 1.2 1.2 1.2 0.6 0 1.2-0.6 1.2-1.2zm13-13.8c0-0.6-0.6-1.2-1.2-1.2-0.7 0-1.3 0.6-1.3 1.2 0 0.7 0.6 1.3 1.3 1.3 0.6 0 1.2-0.6 1.2-1.3zm-0.2 6.9v16c0 0.6-0.4 1.1-1 1.1-0.6 0-1.1-0.5-1.1-1.1v-16c0-0.6 0.5-1.1 1.1-1.1 0.6 0 1 0.5 1 1.1zm-25.9 6.9v9.1c0 0.6-0.5 1.1-1.1 1.1-0.6 0-1.1-0.5-1.1-1.1v-9.1c0-0.6 0.5-1.1 1.1-1.1 0.6 0 1.1 0.5 1.1 1.1zm13 6.8v2.3c0 0.6-0.5 1.1-1.1 1.1-0.6 0-1.1-0.5-1.1-1.1v-2.3c0-0.6 0.5-1.1 1.1-1.1 0.6 0 1.1 0.5 1.1 1.1z"/>
	</g>
</svg>