<svg version="1.2" xmlns="http://www.w3.org/2000/svg" viewBox="0 0 67 64" width="67" height="64">
	<title>Widgets</title>
	<style>
		.s0 { fill: #243f4d } 
	</style>
	<g id="Widgets">
		<path id="Shape 1" fill-rule="evenodd" class="s0" d="m55.7 57.4l-4.3 4.2c-1.6 1.6-3.8 2.4-6.6 2.4-2.5 0-5.4-0.6-8.7-1.9-6.5-2.6-13.6-7.6-20.1-13.9-6.4-6.4-11.4-13.5-14-19.9-2.8-6.8-2.6-12.2 0.4-15.2l4.3-4.2c1.1-1.1 2.5-1.5 4-1.4 1.4 0.2 2.5 1 3.2 2.2l6.5 11.5c1 1.8 0.7 4-0.7 5.4l-4.1 4c-0.8 0.9-0.9 2.2-0.2 3.1 2.1 2.8 4.5 5.5 7.1 8.1 2.6 2.6 5.3 4.9 8.1 7 1 0.7 2.3 0.6 3.1-0.2l4.1-4.1c1.4-1.4 3.7-1.7 5.5-0.7l11.5 6.4c1.3 0.7 2.1 1.9 2.3 3.3 0.2 1.4-0.3 2.8-1.4 3.9zm-0.8-3.6c-0.1-0.8-0.5-1.4-1.1-1.7l-11.6-6.4c-0.9-0.6-2.1-0.4-2.9 0.3l-1.9 2 1.9 1c0.5 0.3 0.7 0.9 0.4 1.4-0.2 0.4-0.5 0.6-0.9 0.6q-0.3 0-0.5-0.1l-2.5-1.4-0.5 0.6c-1.6 1.5-4.2 1.7-6 0.4-2.9-2.1-5.7-4.5-8.4-7.2-2.7-2.7-5.1-5.5-7.3-8.3-1.3-1.8-1.1-4.3 0.5-5.9l0.5-0.5-5.4-9.8c-0.3-0.5-0.1-1.2 0.5-1.4 0.5-0.3 1.2-0.1 1.4 0.4l5.1 9.2 2-1.9c0.7-0.8 0.9-1.9 0.3-2.8l-6.5-11.5c-0.3-0.6-0.9-1-1.6-1.1q-0.2 0-0.4 0c-0.6 0-1.3 0.2-1.8 0.7l-0.7 0.7 1.3 2.5c0.3 0.5 0.1 1.2-0.4 1.4q-0.3 0.2-0.5 0.2c-0.4 0-0.8-0.2-1-0.6l-1-1.9-2 2c-2.3 2.3-2.3 6.9 0.1 12.8 2.5 6.2 7.3 13 13.5 19.1 6.3 6.2 13.2 11 19.4 13.5 5.9 2.3 10.6 2.3 13 0l1.9-1.9-9.3-5c-0.5-0.3-0.7-1-0.4-1.5 0.3-0.5 0.9-0.7 1.4-0.4l9.9 5.3 0.8-0.7c0.5-0.6 0.8-1.4 0.7-2.1zm-1.8-25.2c0 0.6-0.5 1-1.1 1h-1.2v3.5c0 0.6-0.5 1.1-1.1 1.1-0.6 0-1.1-0.5-1.1-1.1v-3.5h-7c-0.3 0-0.6-0.1-0.8-0.4-0.2-0.2-0.3-0.6-0.3-0.9l2.4-10.3c0.1-0.6 0.7-0.9 1.3-0.8 0.5 0.1 0.9 0.7 0.8 1.3l-2 9h5.6v-9.2c0-0.6 0.5-1.1 1.1-1.1 0.6 0 1.1 0.5 1.1 1.1v9.2h1.2c0.6 0 1.1 0.5 1.1 1.1zm-13.9 4.5c0 0.6-0.5 1.1-1.1 1.1h-9.2c-0.6 0-1.1-0.5-1.1-1.1 0-3.2 2.7-4.7 5-6 2.7-1.4 4.3-2.4 4.3-4.6 0-1.7-1.6-3.2-3.6-3.2-1.9 0-3.5 1.5-3.5 3.2 0 0.6-0.5 1.1-1.1 1.1-0.6 0-1.1-0.5-1.1-1.1 0-2.9 2.6-5.3 5.7-5.3 3.2 0 5.7 2.4 5.7 5.3 0 3.6-2.9 5.2-5.3 6.5-1.9 1.1-3.3 1.8-3.8 3.1h8c0.6 0 1.1 0.5 1.1 1zm23.1 12.4c0.2 0.6-0.2 1.2-0.8 1.3l-5.8 1.1q-0.1 0.1-0.2 0.1c-0.3 0-0.6-0.1-0.8-0.4-0.2-0.2-0.3-0.6-0.3-0.9l1.2-5.7c0.1-0.6 0.7-1 1.3-0.9 0.6 0.1 0.9 0.7 0.8 1.3l-0.5 2.4c4.9-4.6 7.6-10.9 7.6-17.5 0-13.3-10.9-24.2-24.3-24.2-8 0-15.4 3.9-20 10.3-0.3 0.5-1 0.6-1.5 0.3-0.5-0.4-0.6-1.1-0.3-1.5 5-7 13.1-11.2 21.8-11.2 14.6 0 26.5 11.8 26.5 26.3 0 7.1-2.9 13.9-8 18.8l2.1-0.4c0.6-0.1 1.1 0.3 1.2 0.8zm-20.8-39.8v2.2c0 0.6-0.5 1.1-1 1.1-0.6 0-1.1-0.5-1.1-1.1v-2.2c0-0.6 0.5-1.1 1.1-1.1 0.5 0 1 0.5 1 1.1zm20.9 20.6c0 0.6-0.5 1-1.1 1h-2.3c-0.6 0-1.1-0.4-1.1-1 0-0.6 0.5-1.1 1.1-1.1h2.3c0.6 0 1.1 0.5 1.1 1.1zm-37-8.7c-0.2 0.4-0.6 0.6-1 0.6q-0.3 0-0.5-0.2l-2-1.1c-0.6-0.3-0.7-1-0.4-1.5 0.3-0.5 0.9-0.7 1.4-0.4l2.1 1.2c0.5 0.3 0.7 0.9 0.4 1.4zm34 19.5c-0.2 0.4-0.5 0.6-0.9 0.6q-0.3 0-0.5-0.2l-2.1-1.1c-0.5-0.3-0.7-1-0.4-1.5 0.3-0.5 1-0.7 1.5-0.4l2 1.2c0.6 0.2 0.7 0.9 0.4 1.4zm-7.6-28.1l-1.2 1.9c-0.2 0.4-0.5 0.6-0.9 0.6q-0.3 0-0.5-0.2c-0.6-0.3-0.7-0.9-0.4-1.4l1.1-2c0.3-0.5 1-0.7 1.5-0.4 0.5 0.3 0.7 0.9 0.4 1.5zm-19.7 33.7l-1.1 2c-0.2 0.3-0.6 0.5-1 0.5q-0.2 0-0.5-0.1c-0.5-0.3-0.7-1-0.4-1.5l1.2-2c0.3-0.5 0.9-0.7 1.4-0.4 0.6 0.3 0.7 1 0.4 1.5zm26.9-25.8l-2 1.1q-0.2 0.2-0.5 0.2c-0.4 0-0.7-0.2-1-0.6-0.3-0.5-0.1-1.1 0.4-1.4l2.1-1.2c0.5-0.3 1.1-0.1 1.4 0.4 0.3 0.5 0.2 1.2-0.4 1.5zm-34 19.5l-2.1 1.1q-0.2 0.2-0.5 0.2c-0.4 0-0.7-0.2-0.9-0.6-0.3-0.5-0.2-1.2 0.4-1.4l2-1.2c0.5-0.3 1.2-0.1 1.5 0.4 0.3 0.5 0.1 1.2-0.4 1.5zm6.7-25.1q-0.2 0.2-0.5 0.2c-0.4 0-0.7-0.2-0.9-0.6l-1.2-1.9c-0.3-0.6-0.1-1.2 0.4-1.5 0.5-0.3 1.2-0.1 1.5 0.4l1.1 2c0.3 0.5 0.2 1.1-0.4 1.4zm19.7 33.8q-0.3 0.1-0.5 0.1c-0.4 0-0.8-0.2-1-0.5l-1.1-2c-0.3-0.5-0.2-1.2 0.4-1.5 0.5-0.3 1.2-0.1 1.4 0.4l1.2 2c0.3 0.5 0.1 1.2-0.4 1.5z"/>
	</g>
</svg>