<svg version="1.2" xmlns="http://www.w3.org/2000/svg" viewBox="0 0 64 40" width="64" height="40">
	<title>Widgets</title>
	<style>
		.s0 { fill: #243f4d } 
	</style>
	<g id="Widgets">
		<path id="Shape 1" fill-rule="evenodd" class="s0" d="m64 22.1v10.6c0 0.5-0.4 1-1 1h-3.3q0 0 0 0c0 3.5-2.8 6.3-6.3 6.3-3.5 0-6.4-2.8-6.4-6.3q0 0 0 0h-22.6q0.1 0 0.1 0c0 3.5-2.9 6.3-6.4 6.3-3.5 0-6.3-2.8-6.3-6.3q0 0 0 0h-5.5c-1.1 0-2-1-2-2.1v-2.2h-3.3c-0.6 0-1-0.4-1-1 0-0.5 0.4-0.9 1-0.9h9.6c0.6 0 1 0.4 1 0.9 0 0.6-0.4 1-1 1h-4.3v2.2q0 0.1 0 0.1h5.8c0.9-2.5 3.2-4.2 6-4.2 2.8 0 5.1 1.7 6 4.2h20.8v-7.5c0-0.5 0.4-1 1-1 0.5 0 1 0.5 1 1v7.5h0.5c0.8-2.5 3.2-4.2 6-4.2 2.8 0 5.1 1.7 6 4.2h2.6v-4.4h-1.1c-1.8 0-3.2-1.4-3.2-3.1v-2.1c0-0.5 0.5-1 1-1h3.1c-0.4-1.3-1.6-2.2-3.1-2.2q0 0 0 0 0 0 0 0h-11.8v1.1c0 0.5-0.5 1-1 1-0.6 0-1-0.5-1-1v-18q0 0-0.1 0h-38.5q0 0 0 0v18c0 0.5-0.5 1-1 1-0.6 0-1-0.5-1-1v-18c0-1.1 0.9-2 2-2h38.5c1.2 0 2.1 0.9 2.1 2v2.2h7.5c2.4 0 4.3 1.9 4.3 4.2v1c0 0.5-0.4 0.9-0.8 1l1.6 6.6c2.6 0.3 4.5 2.5 4.5 5.1zm-17.1-13.7h9.8c0-1.2-1-2.2-2.3-2.2h-7.5zm0 8.5h10.5l-1.6-6.5h-8.9zm-24.5 16.8c0-2.3-1.9-4.3-4.3-4.3-2.4 0-4.3 2-4.3 4.3 0 2.4 1.9 4.3 4.3 4.3 2.4 0 4.3-1.9 4.3-4.3zm35.3 0c0-2.3-1.9-4.3-4.3-4.3-2.4 0-4.4 2-4.4 4.3 0 2.4 2 4.3 4.4 4.3 2.4 0 4.3-1.9 4.3-4.3zm4.3-8.4v-2.2h-2.3v1.1c0 0.6 0.5 1.1 1.2 1.1zm-41.9 8.4c0 1.1-0.9 2.1-2 2.1-1.2 0-2.1-1-2.1-2.1 0-1.1 0.9-2 2.1-2 1.1 0 2 0.9 2 2zm35.3 0c0 1.1-0.9 2.1-2.1 2.1-1.1 0-2-1-2-2.1 0-1.1 0.9-2 2-2 1.2 0 2.1 0.9 2.1 2zm-12.8-5.3c0 0.6-0.5 1-1 1h-15c-0.5 0-1-0.4-1-1 0-0.5 0.5-1 1-1h15c0.5 0 1 0.5 1 1zm-25.7-4.2c0 0.6-0.4 1-1 1h-12.8c-0.5 0-1-0.4-1-1 0-0.5 0.5-1 1-1h12.8c0.6 0 1 0.5 1 1zm17.9-13l-9.6 9.5q-0.3 0.3-0.7 0.3-0.4 0-0.7-0.3l-5.4-5.3c-0.4-0.4-0.4-1 0-1.4 0.4-0.4 1.1-0.4 1.4 0l4.7 4.6 8.9-8.8c0.4-0.4 1-0.4 1.4 0 0.4 0.4 0.4 1 0 1.4z"/>
	</g>
</svg>