<svg version="1.2" xmlns="http://www.w3.org/2000/svg" viewBox="0 0 20 21" width="20" height="21">
	<title>Header</title>
	<style>
		.s0 { fill: #ffffff } 
	</style>
	<g id="Header">
		<path id="Ellipse 32" class="s0" d="m2.1 4.9c-1.1 0-2.1-1-2.1-2.2 0-1.2 1-2.1 2.1-2.1 1.2 0 2.2 0.9 2.2 2.1 0 1.2-1 2.2-2.2 2.2zm0 7.8c-1.1 0-2.1-0.9-2.1-2.1 0-1.2 1-2.1 2.1-2.1 1.2 0 2.2 0.9 2.2 2.1 0 1.2-1 2.1-2.2 2.1zm0 7.9c-1.1 0-2.1-0.9-2.1-2.1 0-1.2 1-2.2 2.1-2.2 1.2 0 2.2 1 2.2 2.2 0 1.2-1 2.1-2.2 2.1zm7.9-15.7c-1.2 0-2.1-1-2.1-2.2 0-1.2 0.9-2.1 2.1-2.1 1.2 0 2.2 0.9 2.2 2.1 0 1.2-1 2.2-2.2 2.2zm0 7.8c-1.2 0-2.1-0.9-2.1-2.1 0-1.2 0.9-2.1 2.1-2.1 1.2 0 2.2 0.9 2.2 2.1 0 1.2-1 2.1-2.2 2.1zm0 7.9c-1.2 0-2.1-0.9-2.1-2.1 0-1.2 0.9-2.2 2.1-2.2 1.2 0 2.2 1 2.2 2.2 0 1.2-1 2.1-2.2 2.1zm7.9-15.7c-1.2 0-2.2-1-2.2-2.2 0-1.2 1-2.1 2.2-2.1 1.2 0 2.1 0.9 2.1 2.1 0 1.2-0.9 2.2-2.1 2.2zm0 7.8c-1.2 0-2.2-0.9-2.2-2.1 0-1.2 1-2.1 2.2-2.1 1.2 0 2.1 0.9 2.1 2.1 0 1.2-0.9 2.1-2.1 2.1zm0 7.9c-1.2 0-2.2-0.9-2.2-2.1 0-1.2 1-2.2 2.2-2.2 1.2 0 2.1 1 2.1 2.2 0 1.2-0.9 2.1-2.1 2.1z"/>
	</g>
</svg>