<?xml version="1.0" encoding="UTF-8" standalone="no"?>
<svg
   xmlns:dc="http://purl.org/dc/elements/1.1/"
   xmlns:cc="http://creativecommons.org/ns#"
   xmlns:rdf="http://www.w3.org/1999/02/22-rdf-syntax-ns#"
   xmlns:svg="http://www.w3.org/2000/svg"
   xmlns="http://www.w3.org/2000/svg"
   xmlns:sodipodi="http://sodipodi.sourceforge.net/DTD/sodipodi-0.dtd"
   xmlns:inkscape="http://www.inkscape.org/namespaces/inkscape"
   inkscape:version="1.0 (4035a4fb49, 2020-05-01)"
   sodipodi:docname="author.svg"
   id="svg7"
   height="20"
   width="20"
   viewBox="0 0 20 20"
   version="1.2">
  <metadata
     id="metadata13">
    <rdf:RDF>
      <cc:Work
         rdf:about="">
        <dc:format>image/svg+xml</dc:format>
        <dc:type
           rdf:resource="http://purl.org/dc/dcmitype/StillImage" />
      </cc:Work>
    </rdf:RDF>
  </metadata>
  <defs
     id="defs11" />
  <sodipodi:namedview
     inkscape:current-layer="svg7"
     inkscape:window-maximized="1"
     inkscape:window-y="-8"
     inkscape:window-x="-8"
     inkscape:cy="12.036846"
     inkscape:cx="16.468207"
     inkscape:zoom="27.846677"
     showgrid="false"
     id="namedview9"
     inkscape:window-height="1018"
     inkscape:window-width="1920"
     inkscape:pageshadow="2"
     inkscape:pageopacity="0"
     guidetolerance="10"
     gridtolerance="10"
     objecttolerance="10"
     borderopacity="1"
     bordercolor="#666666"
     pagecolor="#ffffff" />
  <title
     id="title2">Shape 15</title>
  <style
     id="style4">
		.s0 { fill: #8d8d8d } 
	</style>
  <path
     style="fill:#222933;fill-opacity:1"
     d="m 20,20 h -1.6 c 0,-4.7 -3.7,-8.4 -8.4,-8.4 -4.7,0 -8.4,3.7 -8.4,8.4 H 0 C 0,17.3 1,14.8 2.9,12.9 4,11.8 5.3,11 6.7,10.5 5.2,9.5 4.2,7.8 4.2,5.8 4.2,2.6 6.8,0 10,0 c 3.2,0 5.8,2.6 5.8,5.8 0,2 -1,3.7 -2.5,4.7 1.4,0.5 2.7,1.3 3.8,2.4 C 19,14.8 20,17.3 20,20 Z M 5.8,5.8 c 0,-2.3 1.9,-4.2 4.2,-4.2 2.3,0 4.2,1.9 4.2,4.2 C 14.2,8.1 12.3,10 10,10 7.7,10 5.8,8.1 5.8,5.8 Z"
     class="s0"
     fill-rule="evenodd"
     id="Shape 15" />
</svg>
