<?xml version="1.0" encoding="UTF-8" standalone="no"?>
<svg
   xmlns:dc="http://purl.org/dc/elements/1.1/"
   xmlns:cc="http://creativecommons.org/ns#"
   xmlns:rdf="http://www.w3.org/1999/02/22-rdf-syntax-ns#"
   xmlns:svg="http://www.w3.org/2000/svg"
   xmlns="http://www.w3.org/2000/svg"
   xmlns:sodipodi="http://sodipodi.sourceforge.net/DTD/sodipodi-0.dtd"
   xmlns:inkscape="http://www.inkscape.org/namespaces/inkscape"
   inkscape:version="1.0 (4035a4fb49, 2020-05-01)"
   sodipodi:docname="Shape 21.svg"
   id="svg7"
   height="10.989339"
   width="6.0999999"
   viewBox="0 0 6.0999999 10.989339"
   version="1.2">
  <metadata
     id="metadata13">
    <rdf:RDF>
      <cc:Work
         rdf:about="">
        <dc:format>image/svg+xml</dc:format>
        <dc:type
           rdf:resource="http://purl.org/dc/dcmitype/StillImage" />
      </cc:Work>
    </rdf:RDF>
  </metadata>
  <defs
     id="defs11" />
  <sodipodi:namedview
     inkscape:current-layer="svg7"
     inkscape:window-maximized="1"
     inkscape:window-y="-8"
     inkscape:window-x="-8"
     inkscape:cy="6.7696044"
     inkscape:cx="5.553552"
     inkscape:zoom="48.531538"
     showgrid="false"
     id="namedview9"
     inkscape:window-height="1018"
     inkscape:window-width="1920"
     inkscape:pageshadow="2"
     inkscape:pageopacity="0"
     guidetolerance="10"
     gridtolerance="10"
     objecttolerance="10"
     borderopacity="1"
     bordercolor="#666666"
     pagecolor="#ffffff" />
  <title
     id="title2">Shape 21</title>
  <style
     id="style4">
		.s0 { fill: #262626 } 
	</style>
  <path
     d="m 0.5,10.989339 q -0.2,0 -0.4,-0.2 -0.1,-0.2 -0.1,-0.4 0,-0.2 0.1,-0.3999999 l 4.6,-4.5 -4.6,-4.50000001 q -0.1,-0.2 -0.1,-0.4 0,-0.2 0.1,-0.4 c 0.2,-0.2 0.6,-0.3 0.8,0 l 5,4.90000001 q 0,0 0,0 0.1,0.1 0.1,0.2 0,0 0,0 0.1,0.1 0.1,0.2 0,0 0,0 0,0.1 -0.1,0.2 0,0 0,0 0,0 0,0 0,0 0,0 0,0.1 -0.1,0.2 0,0 0,0 l -5,4.8999999 q -0.1,0.2 -0.4,0.2 z"
     class="s0"
     id="Shape 21" />
</svg>
