<?xml version="1.0" encoding="UTF-8" standalone="no"?>
<svg
   xmlns:dc="http://purl.org/dc/elements/1.1/"
   xmlns:cc="http://creativecommons.org/ns#"
   xmlns:rdf="http://www.w3.org/1999/02/22-rdf-syntax-ns#"
   xmlns:svg="http://www.w3.org/2000/svg"
   xmlns="http://www.w3.org/2000/svg"
   xmlns:sodipodi="http://sodipodi.sourceforge.net/DTD/sodipodi-0.dtd"
   xmlns:inkscape="http://www.inkscape.org/namespaces/inkscape"
   inkscape:version="1.0 (4035a4fb49, 2020-05-01)"
   sodipodi:docname="clock.svg"
   id="svg7"
   height="20"
   width="20"
   viewBox="0 0 20 20"
   version="1.2">
  <metadata
     id="metadata13">
    <rdf:RDF>
      <cc:Work
         rdf:about="">
        <dc:format>image/svg+xml</dc:format>
        <dc:type
           rdf:resource="http://purl.org/dc/dcmitype/StillImage" />
      </cc:Work>
    </rdf:RDF>
  </metadata>
  <defs
     id="defs11" />
  <sodipodi:namedview
     inkscape:current-layer="svg7"
     inkscape:window-maximized="1"
     inkscape:window-y="-8"
     inkscape:window-x="-8"
     inkscape:cy="12.648953"
     inkscape:cx="7.6634158"
     inkscape:zoom="27.846677"
     showgrid="false"
     id="namedview9"
     inkscape:window-height="1018"
     inkscape:window-width="1920"
     inkscape:pageshadow="2"
     inkscape:pageopacity="0"
     guidetolerance="10"
     gridtolerance="10"
     objecttolerance="10"
     borderopacity="1"
     bordercolor="#666666"
     pagecolor="#ffffff" />
  <title
     id="title2">Shape 16</title>
  <style
     id="style4">
		.s0 { fill: #8d8d8d } 
	</style>
  <path
     style="fill:#222933;fill-opacity:1"
     d="M 17.9,5.3 C 18.3,5.1 18.8,5.2 19,5.6 q 1,2.1 1,4.4 C 20,15.5 15.5,20 10,20 4.5,20 0,15.5 0,10 0,4.5 4.5,0 10,0 12.3,0 14.5,0.8 16.2,2.2 16.6,2.4 16.6,3 16.3,3.3 16.1,3.7 15.5,3.8 15.2,3.5 13.7,2.3 11.9,1.7 10,1.7 5.4,1.7 1.7,5.4 1.7,10 c 0,4.6 3.7,8.3 8.3,8.3 4.6,0 8.3,-3.7 8.3,-8.3 q 0,-1.9 -0.8,-3.6 C 17.3,6 17.5,5.5 17.9,5.3 Z M 10,3.3 c 0.5,0 0.8,0.4 0.8,0.9 v 5 h 3.4 c 0.4,0 0.8,0.3 0.8,0.8 0,0.5 -0.4,0.8 -0.8,0.8 H 10 C 9.5,10.8 9.2,10.5 9.2,10 V 4.2 C 9.2,3.7 9.5,3.3 10,3.3 Z"
     class="s0"
     fill-rule="evenodd"
     id="Shape 16" />
</svg>
