<?xml version="1.0" encoding="UTF-8" standalone="no"?>
<svg
   xmlns:dc="http://purl.org/dc/elements/1.1/"
   xmlns:cc="http://creativecommons.org/ns#"
   xmlns:rdf="http://www.w3.org/1999/02/22-rdf-syntax-ns#"
   xmlns:svg="http://www.w3.org/2000/svg"
   xmlns="http://www.w3.org/2000/svg"
   xmlns:sodipodi="http://sodipodi.sourceforge.net/DTD/sodipodi-0.dtd"
   xmlns:inkscape="http://www.inkscape.org/namespaces/inkscape"
   inkscape:version="1.0 (4035a4fb49, 2020-05-01)"
   sodipodi:docname="delivery.svg"
   id="svg8"
   height="36.400002"
   width="53.799999"
   viewBox="0 0 53.799999 36.400002"
   version="1.2">
  <metadata
     id="metadata14">
    <rdf:RDF>
      <cc:Work
         rdf:about="">
        <dc:format>image/svg+xml</dc:format>
        <dc:type
           rdf:resource="http://purl.org/dc/dcmitype/StillImage" />
      </cc:Work>
    </rdf:RDF>
  </metadata>
  <defs
     id="defs12" />
  <sodipodi:namedview
     inkscape:current-layer="svg8"
     inkscape:window-maximized="1"
     inkscape:window-y="-8"
     inkscape:window-x="-8"
     inkscape:cy="14.129057"
     inkscape:cx="26.598311"
     inkscape:zoom="6.0664423"
     showgrid="false"
     id="namedview10"
     inkscape:window-height="1018"
     inkscape:window-width="1920"
     inkscape:pageshadow="2"
     inkscape:pageopacity="0"
     guidetolerance="10"
     gridtolerance="10"
     objecttolerance="10"
     borderopacity="1"
     bordercolor="#666666"
     pagecolor="#ffffff" />
  <title
     id="title2">delivery-truck</title>
  <style
     id="style4">
		.s0 { fill: #a3bbc8 } 
		.s1 { opacity: .3;fill: #a3bbc8 } 
	</style>
  <path
     d="M 9.8,5.5 C 9.8,6 9.5,6.3 9,6.3 H 2.9 C 2.5,6.3 2.1,6 2.1,5.5 2.1,5.1 2.5,4.7 2.9,4.7 H 9 c 0.5,0 0.8,0.4 0.8,0.8 z m 0.5,11 c 0,0.5 -0.3,0.8 -0.8,0.8 H 3.9 c -0.4,0 -0.7,-0.3 -0.7,-0.8 0,-0.4 0.3,-0.8 0.7,-0.8 h 5.6 c 0.5,0 0.8,0.4 0.8,0.8 z M 8.2,11.8 c 0,0.4 -0.3,0.8 -0.8,0.8 H 0.8 C 0.4,12.6 0,12.2 0,11.8 0,11.4 0.4,11 0.8,11 h 6.6 c 0.5,0 0.8,0.4 0.8,0.8 z m 0,11 c 0,0.4 -0.3,0.8 -0.8,0.8 H 6.8 C 6.4,23.6 6,23.2 6,22.8 6,22.4 6.4,22 6.8,22 h 0.6 c 0.5,0 0.8,0.4 0.8,0.8 z m -3.2,0 c 0,0.4 -0.4,0.8 -0.8,0.8 H 0.8 C 0.4,23.6 0,23.2 0,22.8 0,22.4 0.4,22 0.8,22 H 4.2 C 4.6,22 5,22.4 5,22.8 Z M 49.1,10.3 v 14 c 0,0.5 -0.3,0.8 -0.8,0.8 h -2.7 c -0.4,2.4 -2.5,4.2 -5,4.2 -2.4,0 -4.5,-1.8 -4.9,-4.2 H 24.5 c -0.4,2.4 -2.5,4.2 -4.9,4.2 -2.5,0 -4.6,-1.8 -4.9,-4.2 h -2.5 c -0.4,0 -0.7,-0.3 -0.7,-0.8 V 0.8 C 11.5,0.3 11.8,0 12.2,0 h 6.1 c 0.4,0 0.8,0.3 0.8,0.8 0,0.4 -0.4,0.7 -0.8,0.7 H 13 v 22.1 h 1.7 c 0.3,-2.4 2.4,-4.2 4.9,-4.2 2.4,0 4.5,1.8 4.9,4.2 h 8.3 v -1.2 c 0,-0.4 0.4,-0.8 0.8,-0.8 0.4,0 0.8,0.4 0.8,0.8 v 1.2 h 1.3 c 0.4,-2.4 2.5,-4.2 4.9,-4.2 2.5,0 4.6,1.8 5,4.2 h 2 V 10.3 c 0,-3.6 -3,-6.6 -6.6,-6.6 h -6.6 v 15.1 c 0,0.4 -0.4,0.7 -0.8,0.7 -0.4,0 -0.8,-0.3 -0.8,-0.7 V 1.5 H 21.4 C 21,1.5 20.6,1.2 20.6,0.8 20.6,0.3 21,0 21.4,0 h 12.2 c 0.4,0 0.8,0.3 0.8,0.8 V 2.2 H 41 c 4.5,0 8.1,3.6 8.1,8.1 z M 23,24.3 c 0,-1.8 -1.6,-3.4 -3.4,-3.4 -1.9,0 -3.4,1.6 -3.4,3.4 0,1.9 1.5,3.4 3.4,3.4 1.8,0 3.4,-1.5 3.4,-3.4 z m 21,0 c 0,-1.8 -1.5,-3.4 -3.4,-3.4 -1.8,0 -3.4,1.6 -3.4,3.4 q 0,0 0,0 0,0 0,0 c 0,1.9 1.6,3.4 3.4,3.4 1.9,0 3.4,-1.5 3.4,-3.4 z m 2,-14 v 3.2 c 0,0.4 -0.4,0.8 -0.8,0.8 H 36.7 C 36.3,14.3 36,13.9 36,13.5 V 6.1 C 36,5.7 36.3,5.3 36.7,5.3 H 41 c 2.8,0 5,2.2 5,5 z m -1.6,0 C 44.4,8.4 42.9,6.9 41,6.9 h -3.5 v 5.8 h 6.9 z M 21.6,24.4 c 0,1.1 -0.9,2 -2,2 -1.1,0 -2.1,-0.9 -2.1,-2 0,-1.1 1,-2 2.1,-2 1.1,0 2,0.9 2,2 z m -1.6,0 c 0,-0.3 -0.2,-0.5 -0.4,-0.5 -0.3,0 -0.5,0.2 -0.5,0.5 0,0.2 0.2,0.4 0.5,0.4 0.2,0 0.4,-0.2 0.4,-0.4 z m 22.7,0 c 0,1.1 -0.9,2 -2.1,2 -1.1,0 -2,-0.9 -2,-2 0,-1.1 0.9,-2 2,-2 1.2,0 2.1,0.9 2.1,2 z m -1.6,0 c 0,-0.3 -0.2,-0.5 -0.5,-0.5 -0.2,0 -0.4,0.2 -0.4,0.5 0,0.2 0.2,0.4 0.4,0.4 0.3,0 0.5,-0.2 0.5,-0.4 z M 46,17.3 v 2 c 0,0.4 -0.4,0.7 -0.8,0.7 -0.4,0 -0.8,-0.3 -0.8,-0.7 v -2 c 0,-0.5 0.4,-0.8 0.8,-0.8 0.4,0 0.8,0.3 0.8,0.8 z"
     class="s0"
     fill-rule="evenodd"
     id="delivery-truck" />
  <path
     d="m 43.9,16.8 c 5.5,0 9.9,4.4 9.9,9.8 0,5.4 -4.4,9.8 -9.9,9.8 -5.4,0 -9.8,-4.4 -9.8,-9.8 0,-5.4 4.4,-9.8 9.8,-9.8 z"
     class="s1"
     id="Ellipse 1" />
</svg>
