<?xml version="1.0" encoding="UTF-8" standalone="no"?>
<svg
   xmlns:dc="http://purl.org/dc/elements/1.1/"
   xmlns:cc="http://creativecommons.org/ns#"
   xmlns:rdf="http://www.w3.org/1999/02/22-rdf-syntax-ns#"
   xmlns:svg="http://www.w3.org/2000/svg"
   xmlns="http://www.w3.org/2000/svg"
   xmlns:sodipodi="http://sodipodi.sourceforge.net/DTD/sodipodi-0.dtd"
   xmlns:inkscape="http://www.inkscape.org/namespaces/inkscape"
   inkscape:version="1.0 (4035a4fb49, 2020-05-01)"
   sodipodi:docname="dialer.svg"
   id="svg7"
   height="44"
   width="37"
   viewBox="0 0 37 44"
   version="1.2">
  <metadata
     id="metadata13">
    <rdf:RDF>
      <cc:Work
         rdf:about="">
        <dc:format>image/svg+xml</dc:format>
        <dc:type
           rdf:resource="http://purl.org/dc/dcmitype/StillImage" />
      </cc:Work>
    </rdf:RDF>
  </metadata>
  <defs
     id="defs11" />
  <sodipodi:namedview
     inkscape:current-layer="svg7"
     inkscape:window-maximized="1"
     inkscape:window-y="-8"
     inkscape:window-x="-8"
     inkscape:cy="12.619323"
     inkscape:cx="89.76841"
     inkscape:zoom="1.540492"
     showgrid="false"
     id="namedview9"
     inkscape:window-height="1018"
     inkscape:window-width="1920"
     inkscape:pageshadow="2"
     inkscape:pageopacity="0"
     guidetolerance="10"
     gridtolerance="10"
     objecttolerance="10"
     borderopacity="1"
     bordercolor="#666666"
     pagecolor="#ffffff" />
  <title
     id="title2">icon</title>
  <style
     id="style4">
		.s0 { fill: #a3bbc8 } 
	</style>
  <path
     d="m 13.4,39 c 0,-2.7 2.3,-5 5.1,-5 2.8,0 5.1,2.3 5.1,5 0,2.8 -2.3,5 -5.1,5 -2.8,0 -5.1,-2.2 -5.1,-5 z m 2,0 c 0,1.7 1.4,3.1 3.1,3.1 1.7,0 3.1,-1.4 3.1,-3.1 0,-1.7 -1.4,-3 -3.1,-3 -1.7,0 -3.1,1.3 -3.1,3 z M 26.9,27.7 c 0,-2.8 2.3,-5 5,-5 2.8,0 5.1,2.2 5.1,5 0,2.7 -2.3,5 -5.1,5 -2.7,0 -5,-2.3 -5,-5 z m 2,0 c 0,1.7 1.3,3 3,3 1.7,0 3.1,-1.3 3.1,-3 0,-1.7 -1.4,-3.1 -3.1,-3.1 -1.7,0 -3,1.4 -3,3.1 z m -15.5,0 c 0,-2.8 2.3,-5 5.1,-5 2.8,0 5.1,2.2 5.1,5 0,2.7 -2.3,5 -5.1,5 -2.8,0 -5.1,-2.3 -5.1,-5 z m 2,0 c 0,1.7 1.4,3 3.1,3 1.7,0 3.1,-1.3 3.1,-3 0,-1.7 -1.4,-3.1 -3.1,-3.1 -1.7,0 -3.1,1.4 -3.1,3.1 z M 0,27.7 c 0,-2.8 2.3,-5 5.1,-5 2.7,0 5,2.2 5,5 0,2.7 -2.3,5 -5,5 -2.8,0 -5.1,-2.3 -5.1,-5 z m 2,0 c 0,1.7 1.4,3 3.1,3 1.7,0 3,-1.3 3,-3 C 8.1,26 6.8,24.6 5.1,24.6 3.4,24.6 2,26 2,27.7 Z M 26.9,16.3 c 0,-2.7 2.3,-4.9 5,-4.9 2.8,0 5.1,2.2 5.1,4.9 0,2.8 -2.3,5 -5.1,5 -2.7,0 -5,-2.2 -5,-5 z m 2,0 c 0,1.7 1.3,3.1 3,3.1 1.7,0 3.1,-1.4 3.1,-3.1 0,-1.6 -1.4,-3 -3.1,-3 -1.7,0 -3,1.4 -3,3 z m -15.5,0 c 0,-2.7 2.3,-4.9 5.1,-4.9 2.8,0 5.1,2.2 5.1,4.9 0,2.8 -2.3,5 -5.1,5 -2.8,0 -5.1,-2.2 -5.1,-5 z m 2,0 c 0,1.7 1.4,3.1 3.1,3.1 1.7,0 3.1,-1.4 3.1,-3.1 0,-1.6 -1.4,-3 -3.1,-3 -1.7,0 -3.1,1.4 -3.1,3 z M 0,16.3 c 0,-2.7 2.3,-4.9 5.1,-4.9 2.7,0 5,2.2 5,4.9 0,2.8 -2.3,5 -5,5 -2.8,0 -5.1,-2.2 -5.1,-5 z m 2,0 c 0,1.7 1.4,3.1 3.1,3.1 1.7,0 3,-1.4 3,-3.1 0,-1.6 -1.3,-3 -3,-3 -1.7,0 -3.1,1.4 -3.1,3 z M 26.9,5 c 0,-2.7 2.3,-5 5,-5 2.8,0 5.1,2.3 5.1,5 0,2.8 -2.3,5 -5.1,5 -2.7,0 -5,-2.2 -5,-5 z m 2,0 c 0,1.7 1.3,3.1 3,3.1 C 33.6,8.1 35,6.7 35,5 35,3.3 33.6,2 31.9,2 c -1.7,0 -3,1.3 -3,3 z M 13.4,5 c 0,-2.7 2.3,-5 5.1,-5 2.8,0 5.1,2.3 5.1,5 0,2.8 -2.3,5 -5.1,5 -2.8,0 -5.1,-2.2 -5.1,-5 z m 2,0 c 0,1.7 1.4,3.1 3.1,3.1 1.7,0 3.1,-1.4 3.1,-3.1 0,-1.7 -1.4,-3 -3.1,-3 -1.7,0 -3.1,1.3 -3.1,3 z M 0,5 C 0,2.3 2.3,0 5.1,0 c 2.7,0 5,2.3 5,5 0,2.8 -2.3,5 -5,5 C 2.3,10 0,7.8 0,5 Z M 2,5 C 2,6.7 3.4,8.1 5.1,8.1 6.8,8.1 8.1,6.7 8.1,5 8.1,3.3 6.8,2 5.1,2 3.4,2 2,3.3 2,5 Z"
     class="s0"
     fill-rule="evenodd"
     id="icon" />
</svg>
