<?xml version="1.0" encoding="UTF-8" standalone="no"?>
<svg
   xmlns:dc="http://purl.org/dc/elements/1.1/"
   xmlns:cc="http://creativecommons.org/ns#"
   xmlns:rdf="http://www.w3.org/1999/02/22-rdf-syntax-ns#"
   xmlns:svg="http://www.w3.org/2000/svg"
   xmlns="http://www.w3.org/2000/svg"
   xmlns:sodipodi="http://sodipodi.sourceforge.net/DTD/sodipodi-0.dtd"
   xmlns:inkscape="http://www.inkscape.org/namespaces/inkscape"
   inkscape:version="1.0 (4035a4fb49, 2020-05-01)"
   sodipodi:docname="Ellipse 36.svg"
   id="svg638"
   height="50.700001"
   width="50.700001"
   viewBox="0 0 50.700001 50.700001"
   version="1.2">
  <metadata
     id="metadata644">
    <rdf:RDF>
      <cc:Work
         rdf:about="">
        <dc:format>image/svg+xml</dc:format>
        <dc:type
           rdf:resource="http://purl.org/dc/dcmitype/StillImage" />
        <dc:title>Ellipse 36</dc:title>
      </cc:Work>
    </rdf:RDF>
  </metadata>
  <defs
     id="defs642" />
  <sodipodi:namedview
     inkscape:current-layer="svg638"
     inkscape:window-maximized="1"
     inkscape:window-y="-8"
     inkscape:window-x="-8"
     inkscape:cy="38.605028"
     inkscape:cx="61.462508"
     inkscape:zoom="9.1745395"
     fit-margin-bottom="0"
     fit-margin-right="0"
     fit-margin-left="0"
     fit-margin-top="0"
     showgrid="false"
     id="namedview640"
     inkscape:window-height="1018"
     inkscape:window-width="1920"
     inkscape:pageshadow="2"
     inkscape:pageopacity="0"
     guidetolerance="10"
     gridtolerance="10"
     objecttolerance="10"
     borderopacity="1"
     bordercolor="#666666"
     pagecolor="#ffffff" />
  <title
     id="title632">Ellipse 36</title>
  <style
     id="style634">
		.s0 { fill: #a3bbc8 } 
		.s1 { fill: #ffffff } 
	</style>
  <path
     d="m 25.4,0 c 14,0 25.3,11.4 25.3,25.4 0,13.9 -11.3,25.3 -25.3,25.3 C 11.4,50.7 0,39.3 0,25.4 0,11.4 11.4,0 25.4,0 Z"
     class="s0"
     id="Ellipse 36" />
  <path
     d="m 17.8,19.4 c -1.1,0 -2.1,-1 -2.1,-2.2 0,-1.2 1,-2.1 2.1,-2.1 1.2,0 2.2,0.9 2.2,2.1 0,1.2 -1,2.2 -2.2,2.2 z m 0,7.8 c -1.1,0 -2.1,-0.9 -2.1,-2.1 0,-1.2 1,-2.1 2.1,-2.1 1.2,0 2.2,0.9 2.2,2.1 0,1.2 -1,2.1 -2.2,2.1 z m 0,7.9 c -1.1,0 -2.1,-0.9 -2.1,-2.1 0,-1.2 1,-2.2 2.1,-2.2 1.2,0 2.2,1 2.2,2.2 0,1.2 -1,2.1 -2.2,2.1 z m 7.9,-15.7 c -1.2,0 -2.1,-1 -2.1,-2.2 0,-1.2 0.9,-2.1 2.1,-2.1 1.2,0 2.2,0.9 2.2,2.1 0,1.2 -1,2.2 -2.2,2.2 z m 0,7.8 c -1.2,0 -2.1,-0.9 -2.1,-2.1 0,-1.2 0.9,-2.1 2.1,-2.1 1.2,0 2.2,0.9 2.2,2.1 0,1.2 -1,2.1 -2.2,2.1 z m 0,7.9 c -1.2,0 -2.1,-0.9 -2.1,-2.1 0,-1.2 0.9,-2.2 2.1,-2.2 1.2,0 2.2,1 2.2,2.2 0,1.2 -1,2.1 -2.2,2.1 z m 7.9,-15.7 c -1.2,0 -2.2,-1 -2.2,-2.2 0,-1.2 1,-2.1 2.2,-2.1 1.2,0 2.1,0.9 2.1,2.1 0,1.2 -0.9,2.2 -2.1,2.2 z m 0,7.8 c -1.2,0 -2.2,-0.9 -2.2,-2.1 0,-1.2 1,-2.1 2.2,-2.1 1.2,0 2.1,0.9 2.1,2.1 0,1.2 -0.9,2.1 -2.1,2.1 z m 0,7.9 c -1.2,0 -2.2,-0.9 -2.2,-2.1 0,-1.2 1,-2.2 2.2,-2.2 1.2,0 2.1,1 2.1,2.2 0,1.2 -0.9,2.1 -2.1,2.1 z"
     class="s1"
     id="Ellipse 32" />
</svg>
