<?xml version="1.0" encoding="UTF-8" standalone="no"?>
<svg
   xmlns:dc="http://purl.org/dc/elements/1.1/"
   xmlns:cc="http://creativecommons.org/ns#"
   xmlns:rdf="http://www.w3.org/1999/02/22-rdf-syntax-ns#"
   xmlns:svg="http://www.w3.org/2000/svg"
   xmlns="http://www.w3.org/2000/svg"
   xmlns:sodipodi="http://sodipodi.sourceforge.net/DTD/sodipodi-0.dtd"
   xmlns:inkscape="http://www.inkscape.org/namespaces/inkscape"
   inkscape:version="1.0 (4035a4fb49, 2020-05-01)"
   sodipodi:docname="filter-arrow.svg"
   id="svg7"
   height="9.5500002"
   width="5.1999998"
   viewBox="0 0 5.1999998 9.5500002"
   version="1.2">
  <metadata
     id="metadata13">
    <rdf:RDF>
      <cc:Work
         rdf:about="">
        <dc:format>image/svg+xml</dc:format>
        <dc:type
           rdf:resource="http://purl.org/dc/dcmitype/StillImage" />
      </cc:Work>
    </rdf:RDF>
  </metadata>
  <defs
     id="defs11" />
  <sodipodi:namedview
     inkscape:current-layer="svg7"
     inkscape:window-maximized="1"
     inkscape:window-y="-8"
     inkscape:window-x="-8"
     inkscape:cy="5.4022794"
     inkscape:cx="5.7447791"
     inkscape:zoom="62.908726"
     showgrid="false"
     id="namedview9"
     inkscape:window-height="1018"
     inkscape:window-width="1920"
     inkscape:pageshadow="2"
     inkscape:pageopacity="0"
     guidetolerance="10"
     gridtolerance="10"
     objecttolerance="10"
     borderopacity="1"
     bordercolor="#666666"
     pagecolor="#ffffff" />
  <title
     id="title2">Shape 20</title>
  <style
     id="style4">
		.s0 { fill: #243f4d } 
	</style>
  <path
     d="M 0.1,9.45 Q 0,9.25 0,9.05 0,8.85 0.1,8.75 L 4,4.85 0.1,0.95 Q 0,0.75 0,0.55 0,0.35 0.1,0.15 c 0.2,-0.2 0.5,-0.2 0.7,0 L 5,4.45 q 0,0 0,0 0.1,0.1 0.1,0.1 0,0 0,0 0,0 0,0 0.1,0.1 0.1,0.3 0,0 0,0 0,0.1 -0.1,0.2 0,0 0,0 0,0.1 -0.1,0.1 0,0 0,0 l -4.2,4.3 q -0.1,0.1 -0.3,0.1 -0.2,0 -0.4,-0.1 z"
     class="s0"
     id="Shape 20" />
</svg>
