<?xml version="1.0" encoding="UTF-8" standalone="no"?>
<svg
   xmlns:dc="http://purl.org/dc/elements/1.1/"
   xmlns:cc="http://creativecommons.org/ns#"
   xmlns:rdf="http://www.w3.org/1999/02/22-rdf-syntax-ns#"
   xmlns:svg="http://www.w3.org/2000/svg"
   xmlns="http://www.w3.org/2000/svg"
   xmlns:sodipodi="http://sodipodi.sourceforge.net/DTD/sodipodi-0.dtd"
   xmlns:inkscape="http://www.inkscape.org/namespaces/inkscape"
   inkscape:version="1.0 (4035a4fb49, 2020-05-01)"
   sodipodi:docname="filter-search-magnifier.svg"
   id="svg7"
   height="17"
   width="17"
   viewBox="0 0 17 17"
   version="1.2">
  <metadata
     id="metadata13">
    <rdf:RDF>
      <cc:Work
         rdf:about="">
        <dc:format>image/svg+xml</dc:format>
        <dc:type
           rdf:resource="http://purl.org/dc/dcmitype/StillImage" />
      </cc:Work>
    </rdf:RDF>
  </metadata>
  <defs
     id="defs11" />
  <sodipodi:namedview
     inkscape:current-layer="svg7"
     inkscape:window-maximized="1"
     inkscape:window-y="-8"
     inkscape:window-x="-8"
     inkscape:cy="14.957301"
     inkscape:cx="11.132263"
     inkscape:zoom="14.439897"
     showgrid="false"
     id="namedview9"
     inkscape:window-height="1018"
     inkscape:window-width="1920"
     inkscape:pageshadow="2"
     inkscape:pageopacity="0"
     guidetolerance="10"
     gridtolerance="10"
     objecttolerance="10"
     borderopacity="1"
     bordercolor="#666666"
     pagecolor="#ffffff" />
  <title
     id="title2">Shape 76</title>
  <style
     id="style4">
		.s0 { fill: #094074 } 
	</style>
  <path
     d="M 16.4,17 Q 16.2,17 16,16.8 L 10.7,11.5 C 9.6,12.5 8.1,13.1 6.6,13.1 3,13.1 0,10.1 0,6.5 0,2.9 3,0 6.6,0 c 3.6,0 6.5,2.9 6.5,6.5 0,1.6 -0.6,3.1 -1.5,4.2 l 5.3,5.3 q 0.1,0.2 0.1,0.4 0,0.3 -0.1,0.4 Q 16.7,17 16.4,17 Z M 6.6,1.2 c -3,0 -5.4,2.4 -5.4,5.3 0,3 2.4,5.4 5.4,5.4 2.9,0 5.3,-2.4 5.3,-5.4 0,-2.9 -2.4,-5.3 -5.3,-5.3 z"
     class="s0"
     fill-rule="evenodd"
     id="Shape 76" />
</svg>