<svg version="1.2" xmlns="http://www.w3.org/2000/svg" viewBox="0 0 1920 3952" width="1920" height="3952">
	<title>Shape 2</title>
	<style>
		.s0 { fill: #436372 } 
	</style>
	<path id="Shape 2" fill-rule="evenodd" class="s0" d="m1182.7 2897h-15.4c-0.4 0-0.7-0.1-0.9-0.4q0 0 0 0 0 0 0 0c-0.3-0.2-0.4-0.5-0.4-0.8v-9.9c0-0.7 0.6-1.3 1.3-1.3h15.4c0.7 0 1.3 0.6 1.3 1.3v9.9c0 0.3-0.1 0.6-0.4 0.8q0 0 0 0 0 0 0 0c-0.2 0.3-0.5 0.4-0.9 0.4zm-15.8-11.1v9.7l5.9-5.8-5.9-4q0 0 0 0.1zm15.6 10.3l-6-5.9-0.8 0.5q-0.3 0.2-0.7 0.2-0.4 0-0.7-0.2l-0.8-0.5-6 5.9zm0.6-10.3q0-0.1 0-0.1l-6 4 6 5.8zm-8.4 4.3c0.1 0.1 0.3 0.1 0.5 0l6.9-4.7h-14.4z"/>
</svg>