<?xml version="1.0" encoding="UTF-8" standalone="no"?>
<svg
   xmlns:dc="http://purl.org/dc/elements/1.1/"
   xmlns:cc="http://creativecommons.org/ns#"
   xmlns:rdf="http://www.w3.org/1999/02/22-rdf-syntax-ns#"
   xmlns:svg="http://www.w3.org/2000/svg"
   xmlns="http://www.w3.org/2000/svg"
   xmlns:sodipodi="http://sodipodi.sourceforge.net/DTD/sodipodi-0.dtd"
   xmlns:inkscape="http://www.inkscape.org/namespaces/inkscape"
   inkscape:version="1.0 (4035a4fb49, 2020-05-01)"
   sodipodi:docname="letter.svg"
   id="svg7"
   height="12.4"
   width="18"
   viewBox="0 0 18 12.4"
   version="1.2">
  <metadata
     id="metadata13">
    <rdf:RDF>
      <cc:Work
         rdf:about="">
        <dc:format>image/svg+xml</dc:format>
        <dc:type
           rdf:resource="http://purl.org/dc/dcmitype/StillImage" />
      </cc:Work>
    </rdf:RDF>
  </metadata>
  <defs
     id="defs11" />
  <sodipodi:namedview
     inkscape:current-layer="svg7"
     inkscape:window-maximized="1"
     inkscape:window-y="-8"
     inkscape:window-x="-8"
     inkscape:cy="6.7603162"
     inkscape:cx="17.729504"
     inkscape:zoom="16.833149"
     showgrid="false"
     id="namedview9"
     inkscape:window-height="1018"
     inkscape:window-width="1920"
     inkscape:pageshadow="2"
     inkscape:pageopacity="0"
     guidetolerance="10"
     gridtolerance="10"
     objecttolerance="10"
     borderopacity="1"
     bordercolor="#666666"
     pagecolor="#ffffff" />
  <title
     id="title2">Shape 2</title>
  <style
     id="style4">
		.s0 { fill: #436372 } 
	</style>
  <path
     d="M 16.7,12.4 H 1.3 C 0.9,12.4 0.6,12.3 0.4,12 q 0,0 0,0 0,0 0,0 C 0.1,11.8 0,11.5 0,11.2 V 1.3 C 0,0.6 0.6,0 1.3,0 H 16.7 C 17.4,0 18,0.6 18,1.3 v 9.9 c 0,0.3 -0.1,0.6 -0.4,0.8 q 0,0 0,0 0,0 0,0 c -0.2,0.3 -0.5,0.4 -0.9,0.4 z M 0.9,1.3 V 11 L 6.8,5.2 0.9,1.2 q 0,0 0,0.1 z M 16.5,11.6 10.5,5.7 9.7,6.2 Q 9.4,6.4 9,6.4 8.6,6.4 8.3,6.2 L 7.5,5.7 1.5,11.6 Z M 17.1,1.3 q 0,-0.1 0,-0.1 l -6,4 6,5.8 z M 8.7,5.6 C 8.8,5.7 9,5.7 9.2,5.6 L 16.1,0.9 H 1.7 Z"
     class="s0"
     fill-rule="evenodd"
     id="Shape 2" />
</svg>
