<?xml version="1.0" encoding="UTF-8" standalone="no"?>
<svg
   xmlns:dc="http://purl.org/dc/elements/1.1/"
   xmlns:cc="http://creativecommons.org/ns#"
   xmlns:rdf="http://www.w3.org/1999/02/22-rdf-syntax-ns#"
   xmlns:svg="http://www.w3.org/2000/svg"
   xmlns="http://www.w3.org/2000/svg"
   xmlns:sodipodi="http://sodipodi.sourceforge.net/DTD/sodipodi-0.dtd"
   xmlns:inkscape="http://www.inkscape.org/namespaces/inkscape"
   version="1.2"
   viewBox="0 0 22 9"
   width="22"
   height="9"
   id="svg7"
   sodipodi:docname="link-btn-arrow.svg"
   inkscape:version="1.0 (4035a4fb49, 2020-05-01)">
  <metadata
     id="metadata13">
    <rdf:RDF>
      <cc:Work
         rdf:about="">
        <dc:format>image/svg+xml</dc:format>
        <dc:type
           rdf:resource="http://purl.org/dc/dcmitype/StillImage" />
      </cc:Work>
    </rdf:RDF>
  </metadata>
  <defs
     id="defs11">
    <filter
       style="color-interpolation-filters:sRGB"
       id="filter15"
       inkscape:label="фильтр0" />
  </defs>
  <sodipodi:namedview
     inkscape:document-rotation="0"
     pagecolor="#ffffff"
     bordercolor="#666666"
     borderopacity="1"
     objecttolerance="10"
     gridtolerance="10"
     guidetolerance="10"
     inkscape:pageopacity="0"
     inkscape:pageshadow="2"
     inkscape:window-width="1920"
     inkscape:window-height="1018"
     id="namedview9"
     showgrid="false"
     inkscape:zoom="34.31698"
     inkscape:cx="2.7524675"
     inkscape:cy="4.5847698"
     inkscape:window-x="-8"
     inkscape:window-y="-8"
     inkscape:window-maximized="1"
     inkscape:current-layer="svg7" />
  <title
     id="title2">Shape 1</title>
  <style
     id="style4">
		.s0 { fill: #f70808 } 
	</style>
  <path
     id="Shape 1"
     class="s0"
     d="M 0,5.2 V 3.8 C 0,3.7 0.1,3.5 0.3,3.5 h 17 L 17.1,0.7 q 0,-0.1 0,-0.2 0,-0.2 0,-0.2 L 17.3,0.1 Q 17.4,0 17.5,0 q 0.1,0 0.2,0.1 l 4.2,4.2 Q 22,4.4 22,4.5 22,4.6 21.9,4.7 L 17.7,8.9 Q 17.6,9 17.5,9 17.4,9 17.3,8.9 L 17.1,8.7 q 0,0 0,-0.2 0,-0.1 0,-0.2 L 17.2,5.5 H 0.3 C 0.1,5.5 0,5.3 0,5.2 Z"
     style="fill:#436372;fill-opacity:1" />
</svg>
