<?xml version="1.0" encoding="UTF-8" standalone="no"?>
<svg
   xmlns:dc="http://purl.org/dc/elements/1.1/"
   xmlns:cc="http://creativecommons.org/ns#"
   xmlns:rdf="http://www.w3.org/1999/02/22-rdf-syntax-ns#"
   xmlns:svg="http://www.w3.org/2000/svg"
   xmlns="http://www.w3.org/2000/svg"
   xmlns:sodipodi="http://sodipodi.sourceforge.net/DTD/sodipodi-0.dtd"
   xmlns:inkscape="http://www.inkscape.org/namespaces/inkscape"
   version="1.2"
   viewBox="0 0 151.73242 38.900002"
   width="151.73242"
   height="38.900002"
   id="svg192"
   sodipodi:docname="logo.svg"
   inkscape:version="1.0 (4035a4fb49, 2020-05-01)">
  <metadata
     id="metadata198">
    <rdf:RDF>
      <cc:Work
         rdf:about="">
        <dc:format>image/svg+xml</dc:format>
        <dc:type
           rdf:resource="http://purl.org/dc/dcmitype/StillImage" />
        <dc:title>Path 324</dc:title>
      </cc:Work>
    </rdf:RDF>
  </metadata>
  <defs
     id="defs196" />
  <sodipodi:namedview
     inkscape:document-rotation="0"
     pagecolor="#ffffff"
     bordercolor="#666666"
     borderopacity="1"
     objecttolerance="10"
     gridtolerance="10"
     guidetolerance="10"
     inkscape:pageopacity="0"
     inkscape:pageshadow="2"
     inkscape:window-width="1920"
     inkscape:window-height="1018"
     id="namedview194"
     showgrid="false"
     fit-margin-top="0"
     fit-margin-left="0"
     fit-margin-right="0"
     fit-margin-bottom="0"
     inkscape:zoom="3.2436895"
     inkscape:cx="220.4911"
     inkscape:cy="59.026943"
     inkscape:window-x="-8"
     inkscape:window-y="-8"
     inkscape:window-maximized="1"
     inkscape:current-layer="svg192" />
  <title
     id="title184">Path 324</title>
  <style
     id="style186">
		tspan { white-space:pre } 
		.s0 { fill: #a3bbc8 } 
		.t1 { font-size: 36px;line-height: 58px;fill: #436372;font-weight: 500;font-family: &quot;Rubik-Medium&quot;, &quot;Rubik&quot; } 
	</style>
  <path
     id="Path 324"
     fill-rule="evenodd"
     class="s0"
     d="m 0.1,27.78889 c 0.1,-0.2 6.4,-12.9 6.6,-13.2 0.1,-0.4 0.3,-0.4 0.5,-0.5 L 42.4,0.0888888 c 0,0 0.5,-0.1999998 0.9,0 0.4,0.3 0.5,0.7 0.5,0.7 L 50,37.78889 c 0,0 0.1,0.5 -0.3,0.8 -0.4,0.4 -0.9,0.3 -0.9,0.3 l -48,-9.8 c 0,0 -0.4,-0.1 -0.6,-0.4 -0.3,-0.3 -0.2,-0.7 -0.1,-0.9 z m 35.9,-6 -10.3,2.2 20,11.1 z m -33.3,5.1 17.9,-3.7 -12.5,-7 z m 20.5,-4.3 12.4,-2.5 L 41.2,2.4888889 9.6000002,15.08889 Z M 42.4,5.0888893 37.5,20.58889 47.3,33.988891 Z M 22.8,24.48889 l -17.5,3.6 38.1,7.800001 z" />
  <g
     id="Glee."
     aria-label="Glee.
">
    <path
       id="path28"
       style="font-weight:500;font-size:36px;line-height:58px;font-family:Rubik-Medium, Rubik;white-space:pre;fill:#436372"
       d="m 74.578516,33.230899 q -3.312,0 -5.652,-1.152 -2.304,-1.152 -3.6,-3.312 -1.26,-2.196 -1.368,-5.22 -0.036,-1.548 -0.036,-3.312 0,-1.8 0.036,-3.384 0.108,-2.988 1.368,-5.112 1.296,-2.1239998 3.636,-3.2759998 2.376,-1.152 5.616,-1.152 2.628,0 4.608,0.72 1.98,0.684 3.276,1.8 1.332,1.0799998 1.98,2.3399998 0.684,1.26 0.72,2.34 0.036,0.324 -0.18,0.54 -0.216,0.216 -0.576,0.216 h -3.708 q -0.36,0 -0.54,-0.144 -0.18,-0.144 -0.324,-0.432 -0.288,-0.756 -0.9,-1.476 -0.612,-0.756 -1.656,-1.26 -1.044,-0.504 -2.7,-0.504 -2.448,0 -3.924,1.296 -1.44,1.296 -1.548,4.284 -0.108,3.132 0,6.336 0.108,3.06 1.584,4.392 1.512,1.332 3.96,1.332 1.62,0 2.88,-0.576 1.296,-0.576 2.016,-1.8 0.756,-1.224 0.756,-3.132 v -1.116 h -4.392 q -0.36,0 -0.612,-0.252 -0.252,-0.252 -0.252,-0.648 v -1.908 q 0,-0.396 0.252,-0.648 0.252,-0.252 0.612,-0.252 h 8.604 q 0.396,0 0.612,0.252 0.252,0.252 0.252,0.648 v 3.78 q 0,3.024 -1.332,5.22 -1.296,2.196 -3.744,3.384 -2.412,1.188 -5.724,1.188 z" />
    <path
       id="path30"
       style="font-weight:500;font-size:36px;line-height:58px;font-family:Rubik-Medium, Rubik;white-space:pre;fill:#436372"
       d="m 90.426391,32.870899 q -0.36,0 -0.612,-0.252 -0.252,-0.252 -0.252,-0.612 V 8.1748992 q 0,-0.36 0.252,-0.612 0.252,-0.252 0.612,-0.252 h 2.988 q 0.36,0 0.612,0.252 0.252,0.252 0.252,0.612 V 32.006899 q 0,0.36 -0.252,0.612 -0.252,0.252 -0.612,0.252 z" />
    <path
       id="path32"
       style="font-weight:500;font-size:36px;line-height:58px;font-family:Rubik-Medium, Rubik;white-space:pre;fill:#436372"
       d="m 107.15289,33.230899 q -3.996,0 -6.336,-2.304 -2.339999,-2.304 -2.519999,-6.552 -0.036,-0.36 -0.036,-0.9 0,-0.576 0.036,-0.9 0.144,-2.736 1.224,-4.68 1.115999,-1.98 3.059999,-3.024 1.944,-1.08 4.572,-1.08 2.916,0 4.896,1.224 1.98,1.188 2.988,3.348 1.008,2.124 1.008,4.932 v 0.756 q 0,0.36 -0.252,0.612 -0.252,0.252 -0.648,0.252 h -11.952 q 0,0 0,0.108 0,0.108 0,0.18 0.036,1.26 0.468,2.34 0.468,1.044 1.332,1.692 0.9,0.648 2.124,0.648 1.008,0 1.692,-0.288 0.684,-0.324 1.116,-0.72 0.432,-0.396 0.612,-0.648 0.324,-0.432 0.504,-0.504 0.216,-0.108 0.612,-0.108 h 3.096 q 0.36,0 0.576,0.216 0.252,0.216 0.216,0.54 -0.036,0.576 -0.612,1.404 -0.54,0.828 -1.584,1.62 -1.044,0.792 -2.628,1.332 -1.548,0.504 -3.564,0.504 z m -3.96,-11.34 h 7.956 v -0.108 q 0,-1.404 -0.468,-2.448 -0.468,-1.08 -1.368,-1.656 -0.9,-0.612 -2.16,-0.612 -1.26,0 -2.16,0.612 -0.9,0.576 -1.368,1.656 -0.432,1.044 -0.432,2.448 z" />
    <path
       id="path34"
       style="font-weight:500;font-size:36px;line-height:58px;font-family:Rubik-Medium, Rubik;white-space:pre;fill:#436372"
       d="m 127.89508,33.230899 q -3.996,0 -6.336,-2.304 -2.34,-2.304 -2.52,-6.552 -0.036,-0.36 -0.036,-0.9 0,-0.576 0.036,-0.9 0.144,-2.736 1.224,-4.68 1.116,-1.98 3.06,-3.024 1.944,-1.08 4.572,-1.08 2.916,0 4.896,1.224 1.98,1.188 2.988,3.348 1.008,2.124 1.008,4.932 v 0.756 q 0,0.36 -0.252,0.612 -0.252,0.252 -0.648,0.252 h -11.952 q 0,0 0,0.108 0,0.108 0,0.18 0.036,1.26 0.468,2.34 0.468,1.044 1.332,1.692 0.9,0.648 2.124,0.648 1.008,0 1.692,-0.288 0.684,-0.324 1.116,-0.72 0.432,-0.396 0.612,-0.648 0.324,-0.432 0.504,-0.504 0.216,-0.108 0.612,-0.108 h 3.096 q 0.36,0 0.576,0.216 0.252,0.216 0.216,0.54 -0.036,0.576 -0.612,1.404 -0.54,0.828 -1.584,1.62 -1.044,0.792 -2.628,1.332 -1.548,0.504 -3.564,0.504 z m -3.96,-11.34 h 7.956 v -0.108 q 0,-1.404 -0.468,-2.448 -0.468,-1.08 -1.368,-1.656 -0.9,-0.612 -2.16,-0.612 -1.26,0 -2.16,0.612 -0.9,0.576 -1.368,1.656 -0.432,1.044 -0.432,2.448 z" />
    <path
       id="path36"
       style="font-weight:500;font-size:36px;line-height:58px;font-family:Rubik-Medium, Rubik;white-space:pre;fill:#436372"
       d="m 141.22127,32.870899 q -0.36,0 -0.612,-0.252 -0.252,-0.252 -0.252,-0.612 v -3.564 q 0,-0.396 0.252,-0.648 0.252,-0.252 0.612,-0.252 h 3.6 q 0.36,0 0.612,0.252 0.252,0.252 0.252,0.648 v 3.564 q 0,0.36 -0.252,0.612 -0.252,0.252 -0.612,0.252 z" />
  </g>
</svg>
