<?xml version="1.0" encoding="UTF-8" standalone="no"?>
<svg
   xmlns:dc="http://purl.org/dc/elements/1.1/"
   xmlns:cc="http://creativecommons.org/ns#"
   xmlns:rdf="http://www.w3.org/1999/02/22-rdf-syntax-ns#"
   xmlns:svg="http://www.w3.org/2000/svg"
   xmlns="http://www.w3.org/2000/svg"
   xmlns:sodipodi="http://sodipodi.sourceforge.net/DTD/sodipodi-0.dtd"
   xmlns:inkscape="http://www.inkscape.org/namespaces/inkscape"
   inkscape:version="1.0 (4035a4fb49, 2020-05-01)"
   sodipodi:docname="mail.svg"
   id="svg7"
   height="33.950001"
   width="37"
   viewBox="0 0 37 33.950001"
   version="1.2">
  <metadata
     id="metadata13">
    <rdf:RDF>
      <cc:Work
         rdf:about="">
        <dc:format>image/svg+xml</dc:format>
        <dc:type
           rdf:resource="http://purl.org/dc/dcmitype/StillImage" />
      </cc:Work>
    </rdf:RDF>
  </metadata>
  <defs
     id="defs11" />
  <sodipodi:namedview
     inkscape:current-layer="svg7"
     inkscape:window-maximized="1"
     inkscape:window-y="-8"
     inkscape:window-x="-8"
     inkscape:cy="17.263815"
     inkscape:cx="-17.689947"
     inkscape:zoom="8.7143386"
     showgrid="false"
     id="namedview9"
     inkscape:window-height="1018"
     inkscape:window-width="1920"
     inkscape:pageshadow="2"
     inkscape:pageopacity="0"
     guidetolerance="10"
     gridtolerance="10"
     objecttolerance="10"
     borderopacity="1"
     bordercolor="#666666"
     pagecolor="#ffffff" />
  <title
     id="title2">icon</title>
  <style
     id="style4">
		.s0 { fill: #ffffff } 
	</style>
  <path
     style="fill:#a3bbc8;fill-opacity:1"
     d="m 1,33.95 q -0.4,0 -0.7,-0.3 Q 0,33.45 0,33.05 v -20.2 q 0,0 0,0 c 0,-0.3 0.1,-0.6 0.4,-0.8 l 5.3,-3.6 v -3.8 c 0,-0.6 0.5,-1 1,-1 h 6 L 18,0.15 c 0.3,-0.2 0.7,-0.2 1,0 l 5.2,3.5 h 6.1 c 0.5,0 1,0.4 1,1 v 3.8 l 5.3,3.7 q 0.2,0.2 0.3,0.5 c 0.1,0 0.1,0.1 0.1,0.2 v 20.1 c 0,0.6 -0.4,1 -0.9,1 z m 2.7,-1.8 29.5,-0.1 -14.7,-11.2 z m -1.8,-1 11.4,-8.7 -11.4,-7.8 z m 21.7,-8.7 11.4,8.7 v -16.6 z m -16,-6.1 7.3,4.9 3,-2.2 c 0.4,-0.3 0.8,-0.3 1.2,0 q 0,0 0,0 l 3,2.2 7.3,-5 V 5.65 H 7.6 Z m -5,-3.4 3.1,2.1 v -4.2 z m 28.7,2 3,-2 -3,-2.1 z M 16.1,3.75 h 4.8 l -2.4,-1.7 z m -4,12.3 c -0.5,0 -0.9,-0.4 -0.9,-0.9 0,-0.5 0.4,-0.9 0.9,-0.9 h 12.8 c 0.6,0 1,0.4 1,0.9 0,0.5 -0.4,0.9 -1,0.9 z m 0,-4.8 c -0.5,0 -0.9,-0.4 -0.9,-1 0,-0.5 0.4,-0.9 0.9,-0.9 H 25 c 0.5,0 0.9,0.4 0.9,0.9 0,0.6 -0.4,1 -0.9,1 z"
     class="s0"
     fill-rule="evenodd"
     id="icon" />
</svg>
