<?xml version="1.0" encoding="UTF-8" standalone="no"?>
<svg
   xmlns:dc="http://purl.org/dc/elements/1.1/"
   xmlns:cc="http://creativecommons.org/ns#"
   xmlns:rdf="http://www.w3.org/1999/02/22-rdf-syntax-ns#"
   xmlns:svg="http://www.w3.org/2000/svg"
   xmlns="http://www.w3.org/2000/svg"
   xmlns:sodipodi="http://sodipodi.sourceforge.net/DTD/sodipodi-0.dtd"
   xmlns:inkscape="http://www.inkscape.org/namespaces/inkscape"
   inkscape:version="1.0 (4035a4fb49, 2020-05-01)"
   sodipodi:docname="marker.svg"
   id="svg9"
   height="44.004704"
   width="30.9375"
   viewBox="0 0 30.9375 44.004704"
   version="1.2">
  <metadata
     id="metadata15">
    <rdf:RDF>
      <cc:Work
         rdf:about="">
        <dc:format>image/svg+xml</dc:format>
        <dc:type
           rdf:resource="http://purl.org/dc/dcmitype/StillImage" />
      </cc:Work>
    </rdf:RDF>
  </metadata>
  <defs
     id="defs13" />
  <sodipodi:namedview
     inkscape:current-layer="svg9"
     inkscape:window-maximized="1"
     inkscape:window-y="-8"
     inkscape:window-x="-8"
     inkscape:cy="28.745356"
     inkscape:cx="33.437962"
     inkscape:zoom="8.7143386"
     showgrid="false"
     id="namedview11"
     inkscape:window-height="1018"
     inkscape:window-width="1920"
     inkscape:pageshadow="2"
     inkscape:pageopacity="0"
     guidetolerance="10"
     gridtolerance="10"
     objecttolerance="10"
     borderopacity="1"
     bordercolor="#666666"
     pagecolor="#ffffff" />
  <title
     id="title2">icon</title>
  <style
     id="style4">
		.s0 { fill: #a3bbc8 } 
	</style>
  <path
     d="m 14.56875,43.804703 -6.6,-2.9 -5.7,2.5 c -0.6,0.3 -1.3,0.1 -1.8,-0.4 -0.5,-0.5 -0.6,-1.2 -0.3,-1.8 l 5,-10.5 q 0.1,-0.4 0.5,-0.5 c 0.5,-0.3 1.2,-0.1 1.4,0.4 0.2,0.4 0.2,0.8 0,1.1 l -4.3,9.1 4.3,-1.9 c 0.6,-0.3 1.2,-0.3 1.8,0 l 6.6,2.9 q 0,0 0,0 0,0 0,0 l 6.6,-2.9 c 0.6,-0.3 1.2,-0.3 1.8,0 l 4.3,1.9 -4.3,-9.1 c -0.2,-0.5 -0.2,-1 0.1,-1.3 0.4,-0.4 1,-0.5 1.5,-0.2 q 0.2,0.2 0.3,0.5 l 5,10.5 c 0.3,0.6 0.2,1.3 -0.3,1.8 -0.5,0.5 -1.2,0.7 -1.8,0.4 l -5.7,-2.5 -6.6,2.9 q -0.4,0.2 -0.9,0.2 -0.5,0 -0.9,-0.2 z m -2,-7.6 -9.5,-15.9 q 0,0 0,-0.1 c -1,-1.9 -1.6,-4.2 -1.6,-6.4 0.1,-3.6 1.5,-7.1000001 4.1,-9.7000001 2.6,-2.6 6,-4.00000003 9.7,-4.10000003 3.8,-0.1 7.3,1.40000003 10,4.00000003 2.7,2.6 4.2,6.1000001 4.2,9.9000001 q 0,3.4 -1.6,6.3 0,0.1 0,0.1 l -9.6,15.9 c -0.6,1 -1.6,1.6 -2.8,1.6 -1.2,0 -2.2,-0.6 -2.9,-1.6 z m 2.7,-34.0000001 c -6.3,0.1 -11.5,5.3 -11.6,11.6000001 q 0,2.9 1.3,5.4 l 9.5,15.9 c 0.3,0.5 0.8,0.5 1,0.5 0.2,0 0.7,0 1,-0.5 l 9.5,-15.9 q 1.3,-2.5 1.3,-5.3 c 0,-3.2 -1.3,-6.1000001 -3.5,-8.3000001 -2.3,-2.2 -5.2,-3.4 -8.3,-3.4 q -0.1,0 -0.2,0 z m -4.9,11.7000001 c 0,-2.8 2.3,-5.0000001 5.1,-5.0000001 2.8,0 5.1,2.2000001 5.1,5.0000001 0,2.8 -2.3,5 -5.1,5 -2.8,0 -5.1,-2.2 -5.1,-5 z m 2.3,0 c 0,1.6 1.2,2.8 2.8,2.8 1.6,0 2.8,-1.2 2.8,-2.8 0,-1.6 -1.2,-2.8 -2.8,-2.8 -1.6,0 -2.8,1.2 -2.8,2.8 z"
     class="s0"
     fill-rule="evenodd"
     id="icon" />
  <path
     d="m 14.56875,43.804703 -6.6,-2.9 -5.7,2.5 c -0.6,0.3 -1.3,0.1 -1.8,-0.4 -0.5,-0.5 -0.6,-1.2 -0.3,-1.8 l 5,-10.5 q 0.1,-0.4 0.5,-0.5 c 0.5,-0.3 1.2,-0.1 1.4,0.4 0.2,0.4 0.2,0.8 0,1.1 l -4.3,9.1 4.3,-1.9 c 0.6,-0.3 1.2,-0.3 1.8,0 l 6.6,2.9 q 0,0 0,0 0,0 0,0 l 6.6,-2.9 c 0.6,-0.3 1.2,-0.3 1.8,0 l 4.3,1.9 -4.3,-9.1 c -0.2,-0.5 -0.2,-1 0.1,-1.3 0.4,-0.4 1,-0.5 1.5,-0.2 q 0.2,0.2 0.3,0.5 l 5,10.5 c 0.3,0.6 0.2,1.3 -0.3,1.8 -0.5,0.5 -1.2,0.7 -1.8,0.4 l -5.7,-2.5 -6.6,2.9 q -0.4,0.2 -0.9,0.2 -0.5,0 -0.9,-0.2 z m -2,-7.6 -9.5,-15.9 q 0,0 0,-0.1 c -1,-1.9 -1.6,-4.2 -1.6,-6.4 0.1,-3.6 1.5,-7.1000001 4.1,-9.7000001 2.6,-2.6 6,-4.00000003 9.7,-4.10000003 3.8,-0.1 7.3,1.40000003 10,4.00000003 2.7,2.6 4.2,6.1000001 4.2,9.9000001 q 0,3.4 -1.6,6.3 0,0.1 0,0.1 l -9.6,15.9 c -0.6,1 -1.6,1.6 -2.8,1.6 -1.2,0 -2.2,-0.6 -2.9,-1.6 z m 2.7,-34.0000001 c -6.3,0.1 -11.5,5.3 -11.6,11.6000001 q 0,2.9 1.3,5.4 l 9.5,15.9 c 0.3,0.5 0.8,0.5 1,0.5 0.2,0 0.7,0 1,-0.5 l 9.5,-15.9 q 1.3,-2.5 1.3,-5.3 c 0,-3.2 -1.3,-6.1000001 -3.5,-8.3000001 -2.3,-2.2 -5.2,-3.4 -8.3,-3.4 q -0.1,0 -0.2,0 z m -4.9,11.7000001 c 0,-2.8 2.3,-5.0000001 5.1,-5.0000001 2.8,0 5.1,2.2000001 5.1,5.0000001 0,2.8 -2.3,5 -5.1,5 -2.8,0 -5.1,-2.2 -5.1,-5 z m 2.3,0 c 0,1.6 1.2,2.8 2.8,2.8 1.6,0 2.8,-1.2 2.8,-2.8 0,-1.6 -1.2,-2.8 -2.8,-2.8 -1.6,0 -2.8,1.2 -2.8,2.8 z"
     class="s0"
     fill-rule="evenodd"
     id="path7" />
</svg>
