<?xml version="1.0" encoding="UTF-8" standalone="no"?>
<svg
   xmlns:dc="http://purl.org/dc/elements/1.1/"
   xmlns:cc="http://creativecommons.org/ns#"
   xmlns:rdf="http://www.w3.org/1999/02/22-rdf-syntax-ns#"
   xmlns:svg="http://www.w3.org/2000/svg"
   xmlns="http://www.w3.org/2000/svg"
   xmlns:sodipodi="http://sodipodi.sourceforge.net/DTD/sodipodi-0.dtd"
   xmlns:inkscape="http://www.inkscape.org/namespaces/inkscape"
   inkscape:version="1.0 (4035a4fb49, 2020-05-01)"
   sodipodi:docname="play.svg"
   id="svg10"
   height="127"
   width="127"
   viewBox="0 0 127 127"
   version="1.2">
  <metadata
     id="metadata16">
    <rdf:RDF>
      <cc:Work
         rdf:about="">
        <dc:format>image/svg+xml</dc:format>
        <dc:type
           rdf:resource="http://purl.org/dc/dcmitype/StillImage" />
      </cc:Work>
    </rdf:RDF>
  </metadata>
  <defs
     id="defs14" />
  <sodipodi:namedview
     inkscape:current-layer="svg10"
     inkscape:window-maximized="1"
     inkscape:window-y="-8"
     inkscape:window-x="-8"
     inkscape:cy="56.355666"
     inkscape:cx="81.901281"
     inkscape:zoom="6.0664423"
     showgrid="false"
     id="namedview12"
     inkscape:window-height="1018"
     inkscape:window-width="1920"
     inkscape:pageshadow="2"
     inkscape:pageopacity="0"
     guidetolerance="10"
     gridtolerance="10"
     objecttolerance="10"
     borderopacity="1"
     bordercolor="#666666"
     pagecolor="#ffffff" />
  <title
     id="title2">Ellipse 11</title>
  <style
     id="style4">
		.s0 { opacity: .4;fill: #a3bbc8 } 
		.s1 { fill: #a3bbc8 } 
		.s2 { fill: #ffffff } 
	</style>
  <path
     d="M 63.5,0 C 98.6,0 127,28.4 127,63.5 127,98.6 98.6,127 63.5,127 28.4,127 0,98.6 0,63.5 0,28.4 28.4,0 63.5,0 Z"
     class="s0"
     id="Ellipse 11" />
  <path
     d="m 63,14 c 27.1,0 49,21.9 49,49 0,27.1 -21.9,49 -49,49 C 35.9,112 14,90.1 14,63 14,35.9 35.9,14 63,14 Z"
     class="s1"
     id="path7" />
  <path
     d="M 73.7,64.7 57.6,74.5 C 57.1,74.8 56.6,75 56,75 q -0.8,0 -1.4,-0.3 C 53.6,74.2 53,73.3 53,72.3 V 52.7 c 0,-1 0.6,-1.9 1.6,-2.4 0.9,-0.5 2.1,-0.4 3,0.2 l 16.1,9.8 c 0.8,0.5 1.3,1.3 1.3,2.2 0,0.9 -0.5,1.7 -1.3,2.2 z"
     class="s2"
     id="Form 24" />
</svg>
