<?xml version="1.0" encoding="UTF-8" standalone="no"?>
<svg
   xmlns:dc="http://purl.org/dc/elements/1.1/"
   xmlns:cc="http://creativecommons.org/ns#"
   xmlns:rdf="http://www.w3.org/1999/02/22-rdf-syntax-ns#"
   xmlns:svg="http://www.w3.org/2000/svg"
   xmlns="http://www.w3.org/2000/svg"
   xmlns:sodipodi="http://sodipodi.sourceforge.net/DTD/sodipodi-0.dtd"
   xmlns:inkscape="http://www.inkscape.org/namespaces/inkscape"
   sodipodi:docname="products-search.svg"
   inkscape:version="1.0 (4035a4fb49, 2020-05-01)"
   id="svg888"
   version="1.1"
   viewBox="0 0 5.2982817 5.2916651"
   height="5.2916651mm"
   width="5.2982817mm">
  <defs
     id="defs882" />
  <sodipodi:namedview
     inkscape:window-maximized="0"
     inkscape:window-y="35"
     inkscape:window-x="200"
     inkscape:window-height="967"
     inkscape:window-width="1513"
     showgrid="false"
     inkscape:document-rotation="0"
     inkscape:current-layer="layer1"
     inkscape:document-units="mm"
     inkscape:cy="13.252319"
     inkscape:cx="29.835483"
     inkscape:zoom="11.2"
     inkscape:pageshadow="2"
     inkscape:pageopacity="0.0"
     borderopacity="1.0"
     bordercolor="#666666"
     pagecolor="#ffffff"
     id="base" />
  <metadata
     id="metadata885">
    <rdf:RDF>
      <cc:Work
         rdf:about="">
        <dc:format>image/svg+xml</dc:format>
        <dc:type
           rdf:resource="http://purl.org/dc/dcmitype/StillImage" />
        <dc:title></dc:title>
      </cc:Work>
    </rdf:RDF>
  </metadata>
  <g
     transform="translate(-57.071097,-109.23512)"
     id="layer1"
     inkscape:groupmode="layer"
     inkscape:label="Слой 1">
    <path
       style="fill:#a3bbc8;stroke-width:0.264583"
       id="path17"
       fill-rule="evenodd"
       class="s4"
       d="m 62.230472,114.36804 c -0.211666,0.21166 -0.529166,0.21166 -0.714375,0 l -1.217083,-1.19063 c 0.291042,-0.18521 0.529167,-0.42333 0.714375,-0.71437 l 1.217083,1.21708 c 0.185209,0.18521 0.185209,0.50271 0,0.68792 z m -3.175,-1.16417 c -1.084791,0 -1.984375,-0.89958 -1.984375,-1.98438 0,-1.08479 0.899584,-1.98437 1.984375,-1.98437 1.084792,0 1.984375,0.89958 1.984375,1.98437 0,1.0848 -0.899583,1.98438 -1.984375,1.98438 z m 1.481667,-1.98438 c 0,-0.8202 -0.661458,-1.48166 -1.481667,-1.48166 -0.820208,0 -1.481666,0.66146 -1.481666,1.48166 0,0.82021 0.661458,1.48167 1.481666,1.48167 0.820209,0 1.481667,-0.66146 1.481667,-1.48167 z m -1.481667,-1.16416 v 0.34396 c -0.449791,0 -0.820208,0.37041 -0.820208,0.8202 h -0.343958 c 0,-0.635 0.529166,-1.16416 1.164166,-1.16416 z" />
  </g>
</svg>
