<?xml version="1.0" encoding="UTF-8" standalone="no"?>
<svg
   xmlns:dc="http://purl.org/dc/elements/1.1/"
   xmlns:cc="http://creativecommons.org/ns#"
   xmlns:rdf="http://www.w3.org/1999/02/22-rdf-syntax-ns#"
   xmlns:svg="http://www.w3.org/2000/svg"
   xmlns="http://www.w3.org/2000/svg"
   xmlns:sodipodi="http://sodipodi.sourceforge.net/DTD/sodipodi-0.dtd"
   xmlns:inkscape="http://www.inkscape.org/namespaces/inkscape"
   sodipodi:docname="products-cart.svg"
   inkscape:version="1.0 (4035a4fb49, 2020-05-01)"
   id="svg42"
   version="1.1"
   viewBox="0 0 5.8142452 5.2917099"
   height="5.2917099mm"
   width="5.8142452mm">
  <defs
     id="defs36" />
  <sodipodi:namedview
     inkscape:window-maximized="1"
     inkscape:window-y="-8"
     inkscape:window-x="-8"
     inkscape:window-height="1018"
     inkscape:window-width="1920"
     showgrid="false"
     inkscape:document-rotation="0"
     inkscape:current-layer="layer1"
     inkscape:document-units="mm"
     inkscape:cy="10.082299"
     inkscape:cx="-5.8685859"
     inkscape:zoom="22.4"
     inkscape:pageshadow="2"
     inkscape:pageopacity="0.0"
     borderopacity="1.0"
     bordercolor="#666666"
     pagecolor="#ffffff"
     id="base" />
  <metadata
     id="metadata39">
    <rdf:RDF>
      <cc:Work
         rdf:about="">
        <dc:format>image/svg+xml</dc:format>
        <dc:type
           rdf:resource="http://purl.org/dc/dcmitype/StillImage" />
        <dc:title></dc:title>
      </cc:Work>
    </rdf:RDF>
  </metadata>
  <g
     transform="translate(-130.14051,-284.61607)"
     id="layer1"
     inkscape:groupmode="layer"
     inkscape:label="Слой 1">
    <path
       style="fill:#a3bbc7;stroke-width:0.264583;fill-opacity:1"
       id="Forma 1"
       class="s3"
       d="m 130.14051,284.82774 c 0,-0.10584 0.10583,-0.21167 0.21167,-0.21167 h 0.79375 c 0.0794,0 0.15875,0.0529 0.1852,0.15875 l 0.89959,3.175 h 2.38125 l 0.79375,-1.82562 h -2.64584 c -0.10583,0 -0.21166,-0.10584 -0.21166,-0.21167 0,-0.13229 0.10583,-0.21167 0.21166,-0.21167 h 2.9898 c 0.0794,0 0.13229,0.0265 0.1852,0.0794 0.0265,0.0794 0.0265,0.15875 0,0.21166 l -0.97895,2.27542 c -0.0265,0.0794 -0.10584,0.13229 -0.18521,0.13229 h -2.69875 c -0.10584,0 -0.18521,-0.0794 -0.21167,-0.15875 l -0.89958,-3.20146 h -0.60854 c -0.10584,0 -0.21167,-0.0794 -0.21167,-0.21166 z m 1.21708,4.60375 c 0,-0.29104 0.23813,-0.50271 0.50271,-0.50271 0.26458,0 0.47625,0.21167 0.47625,0.50271 0,0.26458 -0.21167,0.47625 -0.47625,0.47625 -0.26458,0 -0.50271,-0.21167 -0.50271,-0.47625 z m 3.06917,0.0265 c -0.0265,-0.26459 0.18521,-0.50271 0.44979,-0.52917 0.26458,-0.0265 0.50271,0.18521 0.52917,0.44979 0,0.13229 -0.0529,0.26458 -0.13229,0.37042 -0.0794,0.0794 -0.21167,0.15875 -0.34396,0.15875 q 0,0 -0.0265,0 c -0.23813,0 -0.44979,-0.21167 -0.47625,-0.44979 z" />
  </g>
</svg>
