<?xml version="1.0" encoding="UTF-8" standalone="no"?>
<svg xmlns:dc="http://purl.org/dc/elements/1.1/" xmlns:cc="http://creativecommons.org/ns#"
    xmlns:rdf="http://www.w3.org/1999/02/22-rdf-syntax-ns#" xmlns:svg="http://www.w3.org/2000/svg"
    xmlns="http://www.w3.org/2000/svg"
    xmlns:sodipodi="http://sodipodi.sourceforge.net/DTD/sodipodi-0.dtd"
    xmlns:inkscape="http://www.inkscape.org/namespaces/inkscape"
    inkscape:version="1.0 (4035a4fb49, 2020-05-01)" sodipodi:docname="related-arrow-left.svg" id="svg8"
    height="52" width="52" viewBox="0 0 52 52" version="1.2">
    <metadata id="metadata14">
        <rdf:RDF>
            <cc:Work rdf:about="">
                <dc:format>image/svg+xml</dc:format>
                <dc:type rdf:resource="http://purl.org/dc/dcmitype/StillImage" />
            </cc:Work>
        </rdf:RDF>
    </metadata>
    <defs id="defs12" />
    <sodipodi:namedview inkscape:current-layer="svg8" inkscape:window-maximized="1"
        inkscape:window-y="-8" inkscape:window-x="-8" inkscape:cy="26.06785" inkscape:cx="32.707239"
        inkscape:zoom="10.654165" showgrid="false" id="namedview10" inkscape:window-height="1018"
        inkscape:window-width="1920" inkscape:pageshadow="2" inkscape:pageopacity="0"
        guidetolerance="10" gridtolerance="10" objecttolerance="10" borderopacity="1"
        bordercolor="#666666" pagecolor="#ffffff" />
    <title id="title2">Rectangle 1</title>
    <style id="style4">
        .s0 {
            opacity: 0;
            fill: none;
            stroke: #a3bbc8;
            stroke-width: 2
        }
        .s1 {
            fill: #a3bbc8
        }
    </style>
    <path
        d="m 6,1 h 40 c 2.8,0 5,2.2 5,5 v 40 c 0,2.8 -2.2,5 -5,5 H 6 C 3.2,51 1,48.8 1,46 V 6 C 1,3.2 3.2,1 6,1 Z"
        class="s0" id="Rectangle 1" />
    <path
        d="m 37,25.8 v 1.4 c 0,0.1 -0.1,0.3 -0.3,0.3 h -17 l 0.2,2.8 q 0,0.1 0,0.2 0,0.2 0,0.2 l -0.2,0.2 Q 19.6,31 19.5,31 19.4,31 19.3,30.9 L 15.1,26.7 Q 15,26.6 15,26.5 q 0,-0.1 0.1,-0.2 l 4.2,-4.2 q 0.1,-0.1 0.2,-0.1 0.1,0 0.2,0.1 l 0.2,0.2 q 0,0 0,0.2 0,0.1 0,0.2 l -0.1,2.8 h 16.9 c 0.2,0 0.3,0.2 0.3,0.3 z"
        class="s1" id="Shape 1" />
</svg>