<?xml version="1.0" encoding="UTF-8" standalone="no"?>
<svg
   xmlns:dc="http://purl.org/dc/elements/1.1/"
   xmlns:cc="http://creativecommons.org/ns#"
   xmlns:rdf="http://www.w3.org/1999/02/22-rdf-syntax-ns#"
   xmlns:svg="http://www.w3.org/2000/svg"
   xmlns="http://www.w3.org/2000/svg"
   xmlns:sodipodi="http://sodipodi.sourceforge.net/DTD/sodipodi-0.dtd"
   xmlns:inkscape="http://www.inkscape.org/namespaces/inkscape"
   inkscape:version="1.0 (4035a4fb49, 2020-05-01)"
   sodipodi:docname="reply-arrow.svg"
   xml:space="preserve"
   style="enable-background:new 0 0 307.046 307.046;"
   viewBox="0 0 307.046 307.046"
   height="307.046px"
   width="307.046px"
   y="0px"
   x="0px"
   id="Capa_1"
   version="1.1"><metadata
   id="metadata44"><rdf:RDF><cc:Work
       rdf:about=""><dc:format>image/svg+xml</dc:format><dc:type
         rdf:resource="http://purl.org/dc/dcmitype/StillImage" /></cc:Work></rdf:RDF></metadata><defs
   id="defs42" /><sodipodi:namedview
   inkscape:current-layer="g7"
   inkscape:window-maximized="1"
   inkscape:window-y="-8"
   inkscape:window-x="-8"
   inkscape:cy="153.52299"
   inkscape:cx="153.52299"
   inkscape:zoom="2.3937782"
   showgrid="false"
   id="namedview40"
   inkscape:window-height="1018"
   inkscape:window-width="1920"
   inkscape:pageshadow="2"
   inkscape:pageopacity="0"
   guidetolerance="10"
   gridtolerance="10"
   objecttolerance="10"
   borderopacity="1"
   bordercolor="#666666"
   pagecolor="#ffffff" />
<g
   id="g7">
	<g
   style="fill:#526278;fill-opacity:1"
   id="_x34_88._Forward">
		<g
   style="fill:#526278;fill-opacity:1"
   id="g4">
			<path
   style="fill:#526278;fill-opacity:1"
   id="path2"
   d="M281.828,142.427L144.002,4.597c-6.129-6.129-16.07-6.129-22.199,0l-11.101,11.101c-6.133,6.133-6.133,16.076,0,22.201     l92.071,92.077H36.321c-8.668,0-15.701,7.035-15.701,15.701v15.699c0,8.664,7.033,15.701,15.701,15.701h166.445l-92.063,92.059     c-6.133,6.136-6.133,16.086,0,22.209l11.101,11.101c6.129,6.136,16.07,6.136,22.199,0l137.826-137.831     C287.959,158.487,287.959,148.556,281.828,142.427z" />
		</g>
	</g>
</g>
<g
   id="g9">
</g>
<g
   id="g11">
</g>
<g
   id="g13">
</g>
<g
   id="g15">
</g>
<g
   id="g17">
</g>
<g
   id="g19">
</g>
<g
   id="g21">
</g>
<g
   id="g23">
</g>
<g
   id="g25">
</g>
<g
   id="g27">
</g>
<g
   id="g29">
</g>
<g
   id="g31">
</g>
<g
   id="g33">
</g>
<g
   id="g35">
</g>
<g
   id="g37">
</g>
</svg>
