<?xml version="1.0" encoding="UTF-8" standalone="no"?>
<svg
   xmlns:dc="http://purl.org/dc/elements/1.1/"
   xmlns:cc="http://creativecommons.org/ns#"
   xmlns:rdf="http://www.w3.org/1999/02/22-rdf-syntax-ns#"
   xmlns:svg="http://www.w3.org/2000/svg"
   xmlns="http://www.w3.org/2000/svg"
   xmlns:sodipodi="http://sodipodi.sourceforge.net/DTD/sodipodi-0.dtd"
   xmlns:inkscape="http://www.inkscape.org/namespaces/inkscape"
   inkscape:version="1.0 (4035a4fb49, 2020-05-01)"
   sodipodi:docname="secure.svg"
   id="svg8"
   height="52.299999"
   width="53.5"
   viewBox="0 0 53.5 52.299999"
   version="1.2">
  <metadata
     id="metadata14">
    <rdf:RDF>
      <cc:Work
         rdf:about="">
        <dc:format>image/svg+xml</dc:format>
        <dc:type
           rdf:resource="http://purl.org/dc/dcmitype/StillImage" />
      </cc:Work>
    </rdf:RDF>
  </metadata>
  <defs
     id="defs12" />
  <sodipodi:namedview
     inkscape:current-layer="svg8"
     inkscape:window-maximized="1"
     inkscape:window-y="-8"
     inkscape:window-x="-8"
     inkscape:cy="79.132035"
     inkscape:cx="4.2164108"
     inkscape:zoom="4.2896225"
     showgrid="false"
     id="namedview10"
     inkscape:window-height="1018"
     inkscape:window-width="1920"
     inkscape:pageshadow="2"
     inkscape:pageopacity="0"
     guidetolerance="10"
     gridtolerance="10"
     objecttolerance="10"
     borderopacity="1"
     bordercolor="#666666"
     pagecolor="#ffffff" />
  <title
     id="title2">credit-card</title>
  <style
     id="style4">
		.s0 { fill: #a3bbc8 } 
		.s1 { opacity: .3;fill: #a3bbc8 } 
	</style>
  <path
     d="M 47,31.8 V 40 c 0,2.1 -1.8,3.9 -3.9,3.9 H 3.8 C 1.7,43.9 0,42.1 0,40 V 16.4 c 0,-2.1 1.7,-3.8 3.8,-3.8 h 25.1 c 0.5,0 0.9,0.3 0.9,0.8 0,0.5 -0.4,0.8 -0.9,0.8 H 3.8 c -1.2,0 -2.2,1 -2.2,2.2 v 2.9 h 9.9 c 0.5,0 0.8,0.4 0.8,0.8 0,0.5 -0.3,0.9 -0.8,0.9 H 1.6 v 5.4 h 27.3 c 0.5,0 0.9,0.4 0.9,0.9 0,0.4 -0.4,0.8 -0.9,0.8 H 1.6 V 40 c 0,1.2 1,2.2 2.2,2.2 h 39.3 c 1.2,0 2.2,-1 2.2,-2.2 v -8.2 c 0,-0.5 0.4,-0.9 0.8,-0.9 0.5,0 0.9,0.4 0.9,0.9 z M 29.8,20.1 c 0,0.5 -0.4,0.9 -0.9,0.9 H 14.7 c -0.5,0 -0.8,-0.4 -0.8,-0.9 0,-0.4 0.3,-0.8 0.8,-0.8 h 14.2 c 0.5,0 0.9,0.4 0.9,0.8 z m -9.3,11.6 c 0,0.4 -0.4,0.8 -0.8,0.8 H 5.4 c -0.5,0 -0.8,-0.4 -0.8,-0.8 0,-0.5 0.3,-0.9 0.8,-0.9 h 14.3 c 0.4,0 0.8,0.4 0.8,0.9 z m -6.1,4 c 0,0.4 -0.3,0.8 -0.8,0.8 H 5.4 c -0.5,0 -0.8,-0.4 -0.8,-0.8 0,-0.5 0.3,-0.9 0.8,-0.9 h 8.2 c 0.5,0 0.8,0.4 0.8,0.9 z m 33,-15.3 v -4.8 c 0,-0.7 -0.6,-1.4 -1.4,-1.4 H 34.1 c -0.7,0 -1.3,0.7 -1.3,1.4 v 10.8 c 0,0.7 0.6,1.3 1.3,1.3 H 46 c 0.8,0 1.4,-0.6 1.4,-1.3 v -3.2 c 0,-0.5 0.4,-0.9 0.8,-0.9 0.5,0 0.9,0.4 0.9,0.9 v 3.2 c 0,1.6 -1.4,3 -3.1,3 H 34.1 c -1.6,0 -3,-1.4 -3,-3 V 15.6 c 0,-1.4 1,-2.7 2.4,-3 v -6 C 33.5,3 36.4,0 40.1,0 c 3.6,0 6.6,3 6.6,6.6 v 6 c 1.3,0.3 2.4,1.6 2.4,3 v 4.8 c 0,0.4 -0.4,0.8 -0.9,0.8 -0.4,0 -0.8,-0.4 -0.8,-0.8 z M 45,12.6 v -6 c 0,-2.7 -2.2,-4.9 -4.9,-4.9 -2.7,0 -4.9,2.2 -4.9,4.9 v 6 z M 43.1,20 c 0,1.4 -0.9,2.6 -2.2,3 v 2 c 0,0.5 -0.4,0.8 -0.9,0.8 -0.4,0 -0.8,-0.3 -0.8,-0.8 v -2 c -1.3,-0.4 -2.3,-1.6 -2.3,-3 0,-1.7 1.4,-3.1 3.1,-3.1 1.7,0 3.1,1.4 3.1,3.1 z m -1.6,0 c 0,-0.8 -0.7,-1.4 -1.5,-1.4 -0.7,0 -1.4,0.6 -1.4,1.4 0,0.8 0.7,1.4 1.4,1.4 0.8,0 1.5,-0.6 1.5,-1.4 z"
     class="s0"
     fill-rule="evenodd"
     id="credit-card" />
  <path
     d="m 43.7,32.7 c 5.4,0 9.8,4.3 9.8,9.8 0,5.4 -4.4,9.8 -9.8,9.8 -5.4,0 -9.8,-4.4 -9.8,-9.8 0,-5.5 4.4,-9.8 9.8,-9.8 z"
     class="s1"
     id="Ellipse 1" />
</svg>
