<?xml version="1.0" encoding="UTF-8" standalone="no"?>
<svg
   xmlns:dc="http://purl.org/dc/elements/1.1/"
   xmlns:cc="http://creativecommons.org/ns#"
   xmlns:rdf="http://www.w3.org/1999/02/22-rdf-syntax-ns#"
   xmlns:svg="http://www.w3.org/2000/svg"
   xmlns="http://www.w3.org/2000/svg"
   xmlns:sodipodi="http://sodipodi.sourceforge.net/DTD/sodipodi-0.dtd"
   xmlns:inkscape="http://www.inkscape.org/namespaces/inkscape"
   inkscape:version="1.0 (4035a4fb49, 2020-05-01)"
   sodipodi:docname="speech.svg"
   id="svg7"
   height="14.8"
   width="18"
   viewBox="0 0 18 14.8"
   version="1.2">
  <metadata
     id="metadata13">
    <rdf:RDF>
      <cc:Work
         rdf:about="">
        <dc:format>image/svg+xml</dc:format>
        <dc:type
           rdf:resource="http://purl.org/dc/dcmitype/StillImage" />
      </cc:Work>
    </rdf:RDF>
  </metadata>
  <defs
     id="defs11" />
  <sodipodi:namedview
     inkscape:current-layer="svg7"
     inkscape:window-maximized="1"
     inkscape:window-y="-8"
     inkscape:window-x="-8"
     inkscape:cy="12.783257"
     inkscape:cx="25.4561"
     inkscape:zoom="11.902834"
     showgrid="false"
     id="namedview9"
     inkscape:window-height="1018"
     inkscape:window-width="1920"
     inkscape:pageshadow="2"
     inkscape:pageopacity="0"
     guidetolerance="10"
     gridtolerance="10"
     objecttolerance="10"
     borderopacity="1"
     bordercolor="#666666"
     pagecolor="#ffffff" />
  <title
     id="title2">Shape 3</title>
  <style
     id="style4">
		.s0 { fill: #436372 } 
	</style>
  <path
     d="m 3,14.8 q -0.1,0 -0.2,0 C 2.7,14.7 2.6,14.6 2.6,14.4 V 12.3 H 1.3 C 0.6,12.3 0,11.8 0,11.1 V 1.2 C 0,0.5 0.6,0 1.3,0 H 16.7 C 17.4,0 18,0.5 18,1.2 v 9.9 c 0,0.7 -0.6,1.2 -1.3,1.2 H 5.8 L 3.3,14.7 Q 3.2,14.8 3,14.8 Z M 1.3,0.8 C 1,0.8 0.9,1 0.9,1.2 v 9.9 c 0,0.2 0.1,0.4 0.4,0.4 H 3 c 0.2,0 0.4,0.2 0.4,0.4 v 1.5 l 1.9,-1.8 q 0.1,-0.1 0.3,-0.1 h 11.1 c 0.3,0 0.4,-0.2 0.4,-0.4 V 1.2 C 17.1,1 17,0.8 16.7,0.8 Z M 6.1,6.2 C 6.1,6.5 5.8,6.8 5.4,6.8 5.1,6.8 4.8,6.5 4.8,6.2 4.8,5.8 5.1,5.5 5.4,5.5 c 0.4,0 0.7,0.3 0.7,0.7 z m 3.6,0 C 9.7,6.5 9.4,6.8 9,6.8 8.7,6.8 8.4,6.5 8.4,6.2 8.4,5.8 8.7,5.5 9,5.5 c 0.4,0 0.7,0.3 0.7,0.7 z m 3.3,0 c 0,0.3 -0.3,0.6 -0.6,0.6 -0.4,0 -0.7,-0.3 -0.7,-0.6 0,-0.4 0.3,-0.7 0.7,-0.7 0.3,0 0.6,0.3 0.6,0.7 z"
     class="s0"
     fill-rule="evenodd"
     id="Shape 3" />
</svg>
