<?xml version="1.0" encoding="UTF-8" standalone="no"?>
<svg
   xmlns:dc="http://purl.org/dc/elements/1.1/"
   xmlns:cc="http://creativecommons.org/ns#"
   xmlns:rdf="http://www.w3.org/1999/02/22-rdf-syntax-ns#"
   xmlns:svg="http://www.w3.org/2000/svg"
   xmlns="http://www.w3.org/2000/svg"
   xmlns:sodipodi="http://sodipodi.sourceforge.net/DTD/sodipodi-0.dtd"
   xmlns:inkscape="http://www.inkscape.org/namespaces/inkscape"
   inkscape:version="1.0 (4035a4fb49, 2020-05-01)"
   sodipodi:docname="Ellipse 1 (1).svg"
   id="svg893"
   height="53.099998"
   width="50.900002"
   viewBox="0 0 50.900002 53.099998"
   version="1.2">
  <metadata
     id="metadata899">
    <rdf:RDF>
      <cc:Work
         rdf:about="">
        <dc:format>image/svg+xml</dc:format>
        <dc:type
           rdf:resource="http://purl.org/dc/dcmitype/StillImage" />
      </cc:Work>
    </rdf:RDF>
  </metadata>
  <defs
     id="defs897" />
  <sodipodi:namedview
     inkscape:current-layer="svg893"
     inkscape:window-maximized="1"
     inkscape:window-y="-8"
     inkscape:window-x="-8"
     inkscape:cy="30.662643"
     inkscape:cx="26.461228"
     inkscape:zoom="9.1745395"
     showgrid="false"
     id="namedview895"
     inkscape:window-height="1018"
     inkscape:window-width="1920"
     inkscape:pageshadow="2"
     inkscape:pageopacity="0"
     guidetolerance="10"
     gridtolerance="10"
     objecttolerance="10"
     borderopacity="1"
     bordercolor="#666666"
     pagecolor="#ffffff" />
  <title
     id="title887">Ellipse 1</title>
  <style
     id="style889">
		.s0 { opacity: .3;fill: #a3bbc8 } 
		.s1 { fill: #a3bbc8 } 
	</style>
  <path
     d="m 41.1,33.5 c 5.4,0 9.8,4.4 9.8,9.8 0,5.4 -4.4,9.8 -9.8,9.8 -5.4,0 -9.8,-4.4 -9.8,-9.8 0,-5.4 4.4,-9.8 9.8,-9.8 z"
     class="s0"
     id="Ellipse 1" />
  <path
     d="m 49.1,24.5 c 0,13.6 -11,24.6 -24.5,24.6 -5.4,0 -10.5,-1.7 -14.8,-4.9 -0.4,-0.3 -0.5,-0.9 -0.2,-1.3 0.4,-0.4 0.9,-0.5 1.4,-0.2 3.9,3 8.6,4.5 13.6,4.5 12.5,0 22.6,-10.1 22.6,-22.7 0,-4.2 -1.1,-8.3 -3.4,-11.9 -0.3,-0.5 -0.1,-1.1 0.3,-1.3 0.5,-0.3 1,-0.2 1.3,0.3 2.4,3.9 3.7,8.3 3.7,12.9 z m -25.8,9.9 c 0,0.6 -0.4,1 -0.9,1 h -9.8 c -0.4,0 -0.8,-0.2 -0.9,-0.6 -0.1,-0.3 -0.1,-0.7 0.2,-1 l 6.3,-6.4 c 2.1,-2 3.2,-4.8 3.2,-7.7 0,-2.2 -1.7,-3.9 -3.9,-3.9 -2.2,0 -4,1.7 -4,3.9 0,0.5 -0.4,1 -0.9,1 -0.5,0 -1,-0.5 -1,-1 0,-3.2 2.7,-5.8 5.9,-5.8 3.2,0 5.8,2.6 5.8,5.8 0,3.4 -1.3,6.7 -3.7,9.1 l -4.8,4.7 h 7.6 c 0.5,0 0.9,0.4 0.9,0.9 z M 38.4,28 c 0,0.5 -0.5,0.9 -1,0.9 h -2.6 v 5.5 c 0,0.6 -0.4,1 -0.9,1 -0.5,0 -1,-0.4 -1,-1 V 28.9 H 26 c -0.3,0 -0.6,-0.1 -0.8,-0.4 -0.2,-0.3 -0.2,-0.7 0,-1 l 7.9,-13.2 c 0.2,-0.4 0.8,-0.6 1.3,-0.3 0.3,0.2 0.4,0.5 0.4,0.8 q 0,0 0,0 v 7.6 c 0,0.5 -0.4,1 -0.9,1 -0.5,0 -1,-0.5 -1,-1 v -4.2 l -5.2,8.9 h 5.2 v -1.5 c 0,-0.6 0.5,-1 1,-1 0.5,0 0.9,0.4 0.9,1 v 1.5 h 2.6 c 0.5,0 1,0.4 1,0.9 z M 42.8,8.5 c 0.1,0.5 -0.4,0.9 -0.9,1 l -4,0.1 q 0,0 -0.1,0 c -0.5,0 -0.9,-0.5 -0.9,-1 0,-0.5 0.4,-0.9 0.9,-0.9 L 39.7,7.6 C 35.5,3.9 30.1,1.9 24.6,1.9 12.1,1.9 1.9,12 1.9,24.6 c 0,6.1 2.4,11.8 6.8,16.1 0.4,0.4 0.4,1 0,1.4 Q 8.4,42.3 8,42.3 7.7,42.3 7.4,42.1 C 2.6,37.4 0,31.2 0,24.5 0,11 11,0 24.6,0 c 3.4,0 6.8,0.7 10,2.1 q 3.5,1.6 6.3,4.1 V 4.5 c 0,-0.5 0.4,-1 0.9,-1 0.5,0 0.9,0.4 1,0.9 z"
     class="s1"
     id="Shape 1" />
</svg>
