<?xml version="1.0" encoding="UTF-8" standalone="no"?>
<svg
   xmlns:dc="http://purl.org/dc/elements/1.1/"
   xmlns:cc="http://creativecommons.org/ns#"
   xmlns:rdf="http://www.w3.org/1999/02/22-rdf-syntax-ns#"
   xmlns:svg="http://www.w3.org/2000/svg"
   xmlns="http://www.w3.org/2000/svg"
   xmlns:sodipodi="http://sodipodi.sourceforge.net/DTD/sodipodi-0.dtd"
   xmlns:inkscape="http://www.inkscape.org/namespaces/inkscape"
   inkscape:version="1.0 (4035a4fb49, 2020-05-01)"
   sodipodi:docname="user.svg"
   id="svg7"
   height="13.2"
   width="13.7"
   viewBox="0 0 13.7 13.2"
   version="1.2">
  <metadata
     id="metadata13">
    <rdf:RDF>
      <cc:Work
         rdf:about="">
        <dc:format>image/svg+xml</dc:format>
        <dc:type
           rdf:resource="http://purl.org/dc/dcmitype/StillImage" />
      </cc:Work>
    </rdf:RDF>
  </metadata>
  <defs
     id="defs11" />
  <sodipodi:namedview
     inkscape:current-layer="svg7"
     inkscape:window-maximized="1"
     inkscape:window-y="-8"
     inkscape:window-x="-8"
     inkscape:cy="5.3257553"
     inkscape:cx="5.61392"
     inkscape:zoom="47.611336"
     showgrid="false"
     id="namedview9"
     inkscape:window-height="1018"
     inkscape:window-width="1920"
     inkscape:pageshadow="2"
     inkscape:pageopacity="0"
     guidetolerance="10"
     gridtolerance="10"
     objecttolerance="10"
     borderopacity="1"
     bordercolor="#666666"
     pagecolor="#ffffff" />
  <title
     id="title2">Shape 1</title>
  <style
     id="style4">
		.s0 { fill: #436372 } 
	</style>
  <path
     d="M 13.3,13.2 H 0.4 C 0.2,13.2 0,13 0,12.8 0,9.8 2.1,7.3 4.9,6.4 3.9,5.8 3.2,4.7 3.2,3.5 3.2,1.6 4.9,0 6.9,0 c 2,0 3.6,1.6 3.6,3.5 0,1.2 -0.7,2.3 -1.7,2.9 2.8,0.9 4.9,3.4 4.9,6.4 0,0.2 -0.2,0.4 -0.4,0.4 z M 0.9,12.3 H 12.8 C 12.6,9.4 10,7 6.9,7 3.7,7 1.1,9.4 0.9,12.3 Z M 6.9,0.8 C 5.3,0.8 4.1,2 4.1,3.5 4.1,5 5.3,6.2 6.9,6.2 8.4,6.2 9.6,5 9.6,3.5 9.6,2 8.4,0.8 6.9,0.8 Z"
     class="s0"
     fill-rule="evenodd"
     id="Shape 1" />
</svg>
