<?xml version="1.0" encoding="UTF-8" standalone="no"?>
<svg
   xmlns:dc="http://purl.org/dc/elements/1.1/"
   xmlns:cc="http://creativecommons.org/ns#"
   xmlns:rdf="http://www.w3.org/1999/02/22-rdf-syntax-ns#"
   xmlns:svg="http://www.w3.org/2000/svg"
   xmlns="http://www.w3.org/2000/svg"
   xmlns:sodipodi="http://sodipodi.sourceforge.net/DTD/sodipodi-0.dtd"
   xmlns:inkscape="http://www.inkscape.org/namespaces/inkscape"
   inkscape:version="1.0 (4035a4fb49, 2020-05-01)"
   sodipodi:docname="document.svg"
   id="svg7"
   height="37.799999"
   width="36.400002"
   viewBox="0 0 36.400002 37.799999"
   version="1.2">
  <metadata
     id="metadata13">
    <rdf:RDF>
      <cc:Work
         rdf:about="">
        <dc:format>image/svg+xml</dc:format>
        <dc:type
           rdf:resource="http://purl.org/dc/dcmitype/StillImage" />
      </cc:Work>
    </rdf:RDF>
  </metadata>
  <defs
     id="defs11" />
  <sodipodi:namedview
     inkscape:current-layer="svg7"
     inkscape:window-maximized="1"
     inkscape:window-y="-8"
     inkscape:window-x="-8"
     inkscape:cy="31.485879"
     inkscape:cx="17.26022"
     inkscape:zoom="4.4361567"
     showgrid="false"
     id="namedview9"
     inkscape:window-height="1018"
     inkscape:window-width="1920"
     inkscape:pageshadow="2"
     inkscape:pageopacity="0"
     guidetolerance="10"
     gridtolerance="10"
     objecttolerance="10"
     borderopacity="1"
     bordercolor="#666666"
     pagecolor="#ffffff" />
  <title
     id="title2">Shape 1</title>
  <style
     id="style4">
		.s0 { fill: #a3bbc8 } 
	</style>
  <path
     d="m 2,37.8 c -1.1,0 -2,-0.9 -2,-2 V 8.5 Q 0,8.1 0.3,7.8 L 7.7,0.3 Q 8,0 8.4,0 h 19.1 c 1.1,0 1.9,0.9 1.9,2 V 4.9 C 29.4,5.4 29,5.8 28.5,5.8 28,5.8 27.6,5.4 27.6,4.9 V 2 c 0,-0.1 0,-0.1 -0.1,-0.1 H 9.3 v 5.5 c 0,1.1 -0.9,2 -2,2 H 1.8 v 26.4 c 0,0.1 0.1,0.1 0.2,0.1 h 25.5 c 0.1,0 0.1,0 0.1,-0.1 V 21.9 c 0,-0.5 0.4,-0.9 0.9,-0.9 0.5,0 0.9,0.4 0.9,0.9 v 13.9 c 0,1.1 -0.8,2 -1.9,2 z M 3.1,7.6 H 7.3 C 7.4,7.6 7.5,7.5 7.5,7.4 V 3.1 Z m 4,23.8 c -0.5,0 -1,-0.5 -1,-1 0,-0.5 0.5,-0.9 1,-0.9 H 11 l 1.4,-5 q 0,-0.3 0.2,-0.4 H 7.1 c -0.5,0 -1,-0.5 -1,-1 0,-0.5 0.5,-0.9 1,-0.9 h 7.3 l 5.5,-5.4 H 7.1 c -0.5,0 -1,-0.5 -1,-1 0,-0.5 0.5,-0.9 1,-0.9 h 14.6 l 8.4,-8.5 c 1.2,-1.2 3.1,-1.2 4.3,0 l 1.1,1.1 c 1.2,1.2 1.2,3.2 0,4.4 L 18,29.5 q -0.2,0.2 -0.4,0.2 c 0,0 -5.7,1.6 -5.7,1.6 0,0 -0.2,0.1 -0.2,0.1 z m 5.9,-2.3 2.6,-0.7 -1.9,-1.9 z m 1.6,-4.5 2.8,2.9 L 31.9,12.9 29,10.1 Z m 16.9,-17 -1.2,1.1 2.9,2.9 1.1,-1.2 c 0.5,-0.5 0.5,-1.3 0,-1.7 L 33.2,7.6 C 33,7.3 32.7,7.2 32.4,7.2 32,7.2 31.7,7.3 31.5,7.6 Z"
     class="s0"
     fill-rule="evenodd"
     id="Shape 1" />
</svg>
