<?xml version="1.0" encoding="UTF-8" standalone="no"?>
<svg
   xmlns:dc="http://purl.org/dc/elements/1.1/"
   xmlns:cc="http://creativecommons.org/ns#"
   xmlns:rdf="http://www.w3.org/1999/02/22-rdf-syntax-ns#"
   xmlns:svg="http://www.w3.org/2000/svg"
   xmlns="http://www.w3.org/2000/svg"
   xmlns:sodipodi="http://sodipodi.sourceforge.net/DTD/sodipodi-0.dtd"
   xmlns:inkscape="http://www.inkscape.org/namespaces/inkscape"
   inkscape:version="1.0 (4035a4fb49, 2020-05-01)"
   sodipodi:docname="medal.svg"
   id="svg7"
   height="40.400002"
   width="41.778774"
   viewBox="0 0 41.778774 40.400002"
   version="1.2">
  <metadata
     id="metadata13">
    <rdf:RDF>
      <cc:Work
         rdf:about="">
        <dc:format>image/svg+xml</dc:format>
        <dc:type
           rdf:resource="http://purl.org/dc/dcmitype/StillImage" />
      </cc:Work>
    </rdf:RDF>
  </metadata>
  <defs
     id="defs11" />
  <sodipodi:namedview
     inkscape:current-layer="svg7"
     inkscape:window-maximized="1"
     inkscape:window-y="-8"
     inkscape:window-x="-8"
     inkscape:cy="32.3881"
     inkscape:cx="2.3086326"
     inkscape:zoom="4.4361567"
     showgrid="false"
     id="namedview9"
     inkscape:window-height="1018"
     inkscape:window-width="1920"
     inkscape:pageshadow="2"
     inkscape:pageopacity="0"
     guidetolerance="10"
     gridtolerance="10"
     objecttolerance="10"
     borderopacity="1"
     bordercolor="#666666"
     pagecolor="#ffffff" />
  <title
     id="title2">Shape 1</title>
  <style
     id="style4">
		.s0 { fill: #a3bbc8 } 
	</style>
  <path
     d="m 12.539388,31.9 c 0,-1.3 0.3,-2.6 0.8,-3.7 L 0.13938769,7.8 c -0.2,-0.4 -0.2,-0.9 0.1,-1.2 L 6.5393877,0.2 q 0.3,-0.2 0.7,-0.2 H 34.539388 q 0.4,0 0.6,0.2 l 6.4,6.4 c 0.3,0.3 0.3,0.8 0.1,1.2 l -13.2,20.4 c 0.5,1.1 0.8,2.4 0.8,3.7 0,4.7 -3.8,8.5 -8.4,8.5 -4.6,0 -8.3,-3.8 -8.3,-8.5 z m 1.8,0 c 0,3.7 2.9,6.7 6.5,6.7 3.7,0 6.6,-3 6.6,-6.7 0,-3.7 -2.9,-6.7 -6.6,-6.7 -3.6,0 -6.5,3 -6.5,6.7 z m 8.5,-8.2 c 1.8,0.4 3.4,1.4 4.5,2.8 l 11.9,-18.3 h -6.4 z m -8.4,2.9 c 1.1,-1.4 2.7,-2.5 4.5,-2.9 L 8.9393877,8.2 h -6.4 z m 6.5,-3.1 q 0,0 0,0 0,0 0,0 l 9.8,-15.3 h -19.7 z M 3.1393877,6.5 c 0,0 6.3,0 6.3,0 0,0 23.0000003,0 23.1000003,0 h 6.3 l -4.6,-4.6 H 7.6393877 Z M 20.439388,35.4 v -4.9 h -0.5 c -0.5,0 -0.9,-0.4 -0.9,-0.9 0,-0.5 0.4,-0.9 0.9,-0.9 h 1.4 c 0.5,0 0.9,0.4 0.9,0.9 v 5.8 c 0,0.5 -0.4,0.9 -0.9,0.9 -0.5,0 -0.9,-0.4 -0.9,-0.9 z"
     class="s0"
     fill-rule="evenodd"
     id="Shape 1" />
</svg>
