<?xml version="1.0" encoding="UTF-8" standalone="no"?>
<svg
   xmlns:dc="http://purl.org/dc/elements/1.1/"
   xmlns:cc="http://creativecommons.org/ns#"
   xmlns:rdf="http://www.w3.org/1999/02/22-rdf-syntax-ns#"
   xmlns:svg="http://www.w3.org/2000/svg"
   xmlns="http://www.w3.org/2000/svg"
   xmlns:sodipodi="http://sodipodi.sourceforge.net/DTD/sodipodi-0.dtd"
   xmlns:inkscape="http://www.inkscape.org/namespaces/inkscape"
   inkscape:version="1.0 (4035a4fb49, 2020-05-01)"
   sodipodi:docname="speaker.svg"
   id="svg7"
   height="39.099998"
   width="43.099998"
   viewBox="0 0 43.099998 39.099998"
   version="1.2">
  <metadata
     id="metadata13">
    <rdf:RDF>
      <cc:Work
         rdf:about="">
        <dc:format>image/svg+xml</dc:format>
        <dc:type
           rdf:resource="http://purl.org/dc/dcmitype/StillImage" />
      </cc:Work>
    </rdf:RDF>
  </metadata>
  <defs
     id="defs11" />
  <sodipodi:namedview
     inkscape:current-layer="svg7"
     inkscape:window-maximized="1"
     inkscape:window-y="-8"
     inkscape:window-x="-8"
     inkscape:cy="53.959428"
     inkscape:cx="6.4886131"
     inkscape:zoom="3.1368365"
     showgrid="false"
     id="namedview9"
     inkscape:window-height="1018"
     inkscape:window-width="1920"
     inkscape:pageshadow="2"
     inkscape:pageopacity="0"
     guidetolerance="10"
     gridtolerance="10"
     objecttolerance="10"
     borderopacity="1"
     bordercolor="#666666"
     pagecolor="#ffffff" />
  <title
     id="title2">Shape 1</title>
  <style
     id="style4">
		.s0 { fill: #a3bbc8 } 
	</style>
  <path
     d="m 43.1,15.5 c 0,3.2 -2.3,5.8 -5.2,6.2 v 7.1 c 0,0.8 -0.4,1.5 -1.1,1.9 q -0.5,0.3 -1.1,0.3 -0.5,0 -1,-0.3 c -6,-3.4 -12.4,-5.5 -19.2,-6.3 l 4.2,11.8 c 0.2,0.7 0.1,1.4 -0.3,2 -0.4,0.6 -1,0.9 -1.7,0.9 h -4.9 c -0.9,0 -1.7,-0.5 -2,-1.4 L 6,24 C 5,23.5 4.2,22.5 4.1,21.3 H 2.7 C 1.2,21.3 0,20.1 0,18.5 v -6 C 0,10.9 1.2,9.7 2.7,9.7 h 1.4 c 0.2,-1.7 1.5,-3 3.2,-3 0,0 6.6,0 6.7,0 7.3,-0.6 14.3,-2.7 20.7,-6.4 0.7,-0.4 1.5,-0.4 2.1,0 0.7,0.4 1.1,1.1 1.1,1.9 v 7.1 c 2.9,0.4 5.2,3 5.2,6.2 z M 4.1,11.8 H 2.7 c -0.3,0 -0.6,0.3 -0.6,0.7 v 6 c 0,0.4 0.3,0.7 0.6,0.7 h 1.4 z m 3.1,10.3 c 0.1,0 5.8,0 5.8,0 V 8.8 H 7.3 C 6.7,8.8 6.1,9.4 6.1,10 v 10.9 c 0,0.5 0.3,0.9 0.7,1.1 0.2,0.1 0.2,0.1 0.4,0.1 z m 6,2.1 H 8.3 l 4.5,12.7 q 0,0.1 0,0.1 h 4.9 q 0,0 0,0 0,-0.1 0,-0.1 z m 22.6,-22 q 0,-0.1 -0.1,-0.1 0,0 0,0 C 29.3,5.8 22.3,8 15,8.7 v 13.5 c 7.3,0.7 14.3,2.9 20.7,6.6 q 0,0 0,0 0.1,0 0.1,-0.1 z M 41,15.5 c 0,-2 -1.3,-3.6 -3.2,-4 v 8 c 1.9,-0.4 3.2,-2 3.2,-4 z"
     class="s0"
     fill-rule="evenodd"
     id="Shape 1" />
</svg>
