<?xml version="1.0" encoding="UTF-8" standalone="no"?>
<svg
   xmlns:dc="http://purl.org/dc/elements/1.1/"
   xmlns:cc="http://creativecommons.org/ns#"
   xmlns:rdf="http://www.w3.org/1999/02/22-rdf-syntax-ns#"
   xmlns:svg="http://www.w3.org/2000/svg"
   xmlns="http://www.w3.org/2000/svg"
   xmlns:sodipodi="http://sodipodi.sourceforge.net/DTD/sodipodi-0.dtd"
   xmlns:inkscape="http://www.inkscape.org/namespaces/inkscape"
   inkscape:version="1.0 (4035a4fb49, 2020-05-01)"
   sodipodi:docname="Path 1.svg"
   id="svg8"
   height="15.5"
   width="8.1000004"
   viewBox="0 0 8.1000004 15.5"
   version="1.2">
  <metadata
     id="metadata14">
    <rdf:RDF>
      <cc:Work
         rdf:about="">
        <dc:format>image/svg+xml</dc:format>
        <dc:type
           rdf:resource="http://purl.org/dc/dcmitype/StillImage" />
      </cc:Work>
    </rdf:RDF>
  </metadata>
  <defs
     id="defs12" />
  <sodipodi:namedview
     inkscape:current-layer="svg8"
     inkscape:window-maximized="1"
     inkscape:window-y="-8"
     inkscape:window-x="-8"
     inkscape:cy="7.9"
     inkscape:cx="4.4"
     inkscape:zoom="45.9375"
     showgrid="false"
     id="namedview10"
     inkscape:window-height="1018"
     inkscape:window-width="1920"
     inkscape:pageshadow="2"
     inkscape:pageopacity="0"
     guidetolerance="10"
     gridtolerance="10"
     objecttolerance="10"
     borderopacity="1"
     bordercolor="#666666"
     pagecolor="#ffffff" />
  <title
     id="title2">Social icon team 52</title>
  <style
     id="style4">
		.s0 { fill: #a1a1a1 } 
	</style>
  <g
     transform="translate(-0.1,-0.1)"
     id="Social icon team 52">
    <path
       d="m 6.2,0.1 q 0.6,0 1.2,0.1 0.4,0 0.8,0 V 2.7 H 8 q -0.4,0 -0.8,0 -0.3,0 -0.6,0 C 5.9,2.8 5.4,3 5.4,3.8 c 0,0.6 0,1.9 0,2 0,0 0.6,0 1.3,0 0.3,0 0.6,0 0.9,0 H 8.1 Q 7.9,7.2 7.7,8.6 H 5.4 l -0.1,7 H 2.4 l 0.1,-7 H 0.1 V 5.8 H 2.5 V 5.6 q 0,-0.8 0,-1.7 0,-0.5 0.1,-1.1 C 2.8,2 3.2,1.3 3.9,0.8 4.5,0.3 5.2,0.1 6,0.1 q 0.1,0 0.2,0 z"
       class="s0"
       id="Path 1" />
  </g>
</svg>
