<?xml version="1.0" encoding="UTF-8" standalone="no"?>
<svg
   xmlns:dc="http://purl.org/dc/elements/1.1/"
   xmlns:cc="http://creativecommons.org/ns#"
   xmlns:rdf="http://www.w3.org/1999/02/22-rdf-syntax-ns#"
   xmlns:svg="http://www.w3.org/2000/svg"
   xmlns="http://www.w3.org/2000/svg"
   xmlns:sodipodi="http://sodipodi.sourceforge.net/DTD/sodipodi-0.dtd"
   xmlns:inkscape="http://www.inkscape.org/namespaces/inkscape"
   inkscape:version="1.0 (4035a4fb49, 2020-05-01)"
   sodipodi:docname="Union 1.svg"
   id="svg8"
   height="11.4"
   width="18"
   viewBox="0 0 18 11.4"
   version="1.2">
  <metadata
     id="metadata14">
    <rdf:RDF>
      <cc:Work
         rdf:about="">
        <dc:format>image/svg+xml</dc:format>
        <dc:type
           rdf:resource="http://purl.org/dc/dcmitype/StillImage" />
      </cc:Work>
    </rdf:RDF>
  </metadata>
  <defs
     id="defs12" />
  <sodipodi:namedview
     inkscape:current-layer="svg8"
     inkscape:window-maximized="1"
     inkscape:window-y="-8"
     inkscape:window-x="-8"
     inkscape:cy="5.7"
     inkscape:cx="9.1"
     inkscape:zoom="61.25"
     showgrid="false"
     id="namedview10"
     inkscape:window-height="1018"
     inkscape:window-width="1920"
     inkscape:pageshadow="2"
     inkscape:pageopacity="0"
     guidetolerance="10"
     gridtolerance="10"
     objecttolerance="10"
     borderopacity="1"
     bordercolor="#666666"
     pagecolor="#ffffff" />
  <title
     id="title2">Social icon team 52</title>
  <style
     id="style4">
		.s0 { fill: #a1a1a1 } 
	</style>
  <g
     transform="translate(0.1,-0.3)"
     id="Social icon team 52">
    <path
       d="M 5.3,11.7 Q 3.6,11.6 2.2,10.6 0.5,9.4 0,7.2 -0.1,6.5 -0.1,5.7 0,3.9 1.2,2.4 2.4,1 4.3,0.5 4.7,0.4 5.2,0.3 q 0.3,0 0.6,0 1.4,0 2.7,0.8 C 9,1.4 9.3,1.7 9.5,1.8 Q 8.6,2.6 7.8,3.5 C 7.4,3.1 6.9,2.8 6.1,2.7 Q 5.9,2.6 5.6,2.6 C 4.1,2.6 2.7,3.8 2.4,5.3 q -0.2,0.5 -0.1,1 c 0.1,1.4 1,2.6 2.3,3 q 0.5,0.1 1,0.1 0.1,0 0.2,0 0.9,0 1.7,-0.5 C 8.4,8.3 8.6,7.4 8.6,7.2 h -3 c 0,-0.1 0,-1.5 0,-2.2 V 4.9 H 11 c 0.3,1.7 0,3.4 -1,4.8 -0.8,0.9 -1.7,1.5 -2.9,1.8 q -0.7,0.2 -1.5,0.2 -0.2,0 -0.3,0 z M 15.9,8.5 h -1.5 v -2 h -2 V 5 h 2 V 3 h 0.1 1.4 0.1 l -0.1,2 h 2 v 1.5 h -2 z"
       class="s0"
       id="Union 1" />
  </g>
</svg>
