<?xml version="1.0" encoding="UTF-8" standalone="no"?>
<svg
   xmlns:dc="http://purl.org/dc/elements/1.1/"
   xmlns:cc="http://creativecommons.org/ns#"
   xmlns:rdf="http://www.w3.org/1999/02/22-rdf-syntax-ns#"
   xmlns:svg="http://www.w3.org/2000/svg"
   xmlns="http://www.w3.org/2000/svg"
   xmlns:sodipodi="http://sodipodi.sourceforge.net/DTD/sodipodi-0.dtd"
   xmlns:inkscape="http://www.inkscape.org/namespaces/inkscape"
   inkscape:version="1.0 (4035a4fb49, 2020-05-01)"
   sodipodi:docname="Union 2.svg"
   id="svg8"
   height="13.7"
   width="13.691178"
   viewBox="0 0 13.691178 13.7"
   version="1.2">
  <metadata
     id="metadata14">
    <rdf:RDF>
      <cc:Work
         rdf:about="">
        <dc:format>image/svg+xml</dc:format>
        <dc:type
           rdf:resource="http://purl.org/dc/dcmitype/StillImage" />
      </cc:Work>
    </rdf:RDF>
  </metadata>
  <defs
     id="defs12" />
  <sodipodi:namedview
     inkscape:current-layer="svg8"
     inkscape:window-maximized="1"
     inkscape:window-y="-8"
     inkscape:window-x="-8"
     inkscape:cy="7"
     inkscape:cx="7.0313708"
     inkscape:zoom="52.5"
     showgrid="false"
     id="namedview10"
     inkscape:window-height="1018"
     inkscape:window-width="1920"
     inkscape:pageshadow="2"
     inkscape:pageopacity="0"
     guidetolerance="10"
     gridtolerance="10"
     objecttolerance="10"
     borderopacity="1"
     bordercolor="#666666"
     pagecolor="#ffffff" />
  <title
     id="title2">Social icon team 52</title>
  <style
     id="style4">
		.s0 { fill: #a1a1a1 } 
	</style>
  <g
     transform="translate(-0.46862915)"
     id="Social icon team 52">
    <path
       d="M 3.3,13.5 C 1.8,13.1 0.9,12.1 0.6,10.5 0.4,9.3 0.4,4 0.8,2.8 Q 1.4,0.5 3.7,0.2 C 4.4,0 5.8,0 7.2,0 c 1.2,0 2.5,0 3.3,0.1 0.9,0 1.8,0.3 2.5,1 0.6,0.6 1,1.4 1.1,2.3 0.1,1.1 0.1,6.2 -0.2,7.4 q -0.6,2.3 -3,2.7 c -0.6,0.1 -2.2,0.2 -3.8,0.2 -1.6,0 -3.2,-0.1 -3.8,-0.2 z M 4.1,1.3 c -1.2,0.2 -2,0.9 -2.2,2.1 -0.2,1.3 -0.2,6 -0.1,6.9 0.2,1 0.7,1.7 1.7,1.9 0.6,0.2 2.1,0.2 3.7,0.2 1.4,0 2.8,0 3.4,-0.1 1.2,-0.1 2,-0.8 2.2,-2 C 13,9.1 13,4.7 12.8,3.5 12.7,2.3 12,1.6 10.8,1.4 10.2,1.3 8.8,1.2 7.4,1.2 6,1.2 4.7,1.3 4.1,1.3 Z M 3.8,6.8 c 0,-1.9 1.6,-3.5 3.6,-3.5 1.9,0 3.4,1.6 3.4,3.5 0,2 -1.6,3.5 -3.5,3.5 -1.9,0 -3.5,-1.5 -3.5,-3.5 z m 1.3,0 C 5,8.1 6,9.1 7.3,9.1 8.5,9.1 9.6,8.1 9.6,6.9 9.6,5.6 8.6,4.6 7.4,4.6 H 7.3 c -1.2,0 -2.2,1 -2.2,2.2 z m 5.1,-3.6 c 0,-0.5 0.3,-0.8 0.8,-0.8 0.4,0 0.8,0.3 0.8,0.8 C 11.8,3.7 11.4,4 11,4 10.5,4 10.2,3.6 10.2,3.2 Z"
       class="s0"
       fill-rule="evenodd"
       id="Union 2" />
  </g>
</svg>
