<?xml version="1.0" encoding="UTF-8" standalone="no"?>
<svg
   xmlns:dc="http://purl.org/dc/elements/1.1/"
   xmlns:cc="http://creativecommons.org/ns#"
   xmlns:rdf="http://www.w3.org/1999/02/22-rdf-syntax-ns#"
   xmlns:svg="http://www.w3.org/2000/svg"
   xmlns="http://www.w3.org/2000/svg"
   xmlns:sodipodi="http://sodipodi.sourceforge.net/DTD/sodipodi-0.dtd"
   xmlns:inkscape="http://www.inkscape.org/namespaces/inkscape"
   inkscape:version="1.0 (4035a4fb49, 2020-05-01)"
   sodipodi:docname="Path 2.svg"
   id="svg8"
   height="11.6"
   width="14.3"
   viewBox="0 0 14.3 11.6"
   version="1.2">
  <metadata
     id="metadata14">
    <rdf:RDF>
      <cc:Work
         rdf:about="">
        <dc:format>image/svg+xml</dc:format>
        <dc:type
           rdf:resource="http://purl.org/dc/dcmitype/StillImage" />
      </cc:Work>
    </rdf:RDF>
  </metadata>
  <defs
     id="defs12" />
  <sodipodi:namedview
     inkscape:current-layer="svg8"
     inkscape:window-maximized="1"
     inkscape:window-y="-8"
     inkscape:window-x="-8"
     inkscape:cy="6.1"
     inkscape:cx="7.1"
     inkscape:zoom="61.25"
     showgrid="false"
     id="namedview10"
     inkscape:window-height="1018"
     inkscape:window-width="1920"
     inkscape:pageshadow="2"
     inkscape:pageopacity="0"
     guidetolerance="10"
     gridtolerance="10"
     objecttolerance="10"
     borderopacity="1"
     bordercolor="#666666"
     pagecolor="#ffffff" />
  <title
     id="title2">Social icon team 52</title>
  <style
     id="style4">
		.s0 { fill: #a1a1a1 } 
	</style>
  <g
     transform="translate(-0.4,0.1)"
     id="Social icon team 52">
    <path
       d="m 14.7,1.3 q -0.2,0.2 -0.3,0.4 -0.5,0.6 -1.1,1 l -0.1,0.1 q 0.1,0.7 0,1.3 -0.2,1.4 -0.8,2.6 -0.6,1.3 -1.6,2.4 -1.7,1.7 -4.1,2.2 -0.8,0.2 -1.6,0.2 -0.1,0 -0.3,0 -2.3,0 -4.4,-1.3 0.3,0 0.6,0 1.2,0 2.3,-0.4 Q 4,9.5 4.7,9 C 3.2,8.9 2.2,7.8 2,6.9 Q 2.3,7 2.5,7 2.9,7 3.2,6.9 H 3.3 Q 2,6.6 1.4,5.5 1,4.8 1,4 1.6,4.3 2.3,4.3 1.3,3.7 1.1,2.6 0.8,1.4 1.4,0.4 q 2.4,2.8 6,3.1 0,-0.2 0,-0.3 -0.1,-1.1 0.4,-1.9 0.7,-1.2 2,-1.4 0.3,0 0.6,0 1.1,0 2,0.9 0,0 0.1,0 0,0 0,0 1,-0.2 1.8,-0.7 -0.3,1 -1.2,1.6 0.8,-0.1 1.6,-0.4 z"
       class="s0"
       id="Path 2" />
  </g>
</svg>
